<svg id="eOBXtKaNfsv1" xmlns="http://www.w3.org/2000/svg" xmlns:xlink="http://www.w3.org/1999/xlink" viewBox="0 0 1294 1600" shape-rendering="geometricPrecision" text-rendering="geometricPrecision" project-id="5a527ecce0fb4288b3b2ce07a2753190" export-id="ea86c71ad030431e8ffa8391253049c6" cached="false"><path d="M2.12,4.62c2.81-.44,13.04.42,16.88,0c0,0,28,0,28,0s12,0,12,0s12,0,12,0s26,0,26,0s16.83,0,16.83,0s15.17,0,15.17,0s40,0,40,0s24,0,24,0s18,0,18,0s23,0,23,0s14,0,14,0s11,0,11,0s23,0,23,0s12,0,12,0s6,0,6,0s18,0,18,0s13,0,13,0s6,0,6,0s12,0,12,0s21,0,21,0s17.04,0,17.04,0s16.96,0,16.96,0s28,0,28,0s14,0,14,0s12.42,0,12.42,0s12.58,0,12.58,0s11,0,11,0s14,0,14,0s11,0,11,0s8,0,8,0s9,0,9,0s9,0,9,0s8,0,8,0s30,0,30,0s10,0,10,0s13,0,13,0s24,0,24,0s15,0,15,0s13.09,0,13.09,0s19.91,0,19.91,0s15.28,0,15.28,0s14.72,0,14.72,0s13,0,13,0s36,0,36,0s10,0,10,0s8,0,8,0s18,0,18,0s15.01,0,15.01,0s21.99,0,21.99,0s14,0,14,0s29,0,29,0s22,0,22,0s20.28,0,20.28,0s21.72,0,21.72,0s14,0,14,0s46,0,46,0s17.75,0,17.75,0s11.25,0,11.25,0s24,0,24,0s12,0,12,0s12,0,12,0s10,0,10,0s51,0,51,0s9,0,9,0s16.01,0,16.01,0s13.99,0,13.99,0s9,0,9,0s9,0,9,0s8,0,8,0s25,0,25,0s12,0,12,0s10,0,10,0s18,0,18,0s15,0,15,0s10,0,10,0c3.48-.25,10.54-1.8,13.26.98c2.06,2.11,1.74,6.63,1.85,9.4c0,0,0,129,0,129s0,8,0,8s0,12,0,12s0,40,0,40s0,100,0,100s0,10,0,10s0,11,0,11s0,262,0,262s0,201,0,201s0,112,0,112s.77,19,.77,19c-.47,6.4-2.86,4.32-2.88,16c0,0,0,22,0,22s-3.3,30-3.3,30-1.67,8-1.67,8s0,10,0,10-2.67,16-2.67,16-2.73,8-2.73,8-1.26,8-1.26,8-1.98,6-1.98,6-.88,6-.88,6-2.1,6-2.1,6-.62,7-.62,7-2.41,8-2.41,8-2.29,12-2.29,12-7.32,24-7.32,24-7.42,21-7.42,21-2.07,10-2.07,10-8.55,18-8.55,18-2.55,8.91-2.55,8.91-4.05,6.7-4.05,6.7c-.95,2.36-.66,4.6-2.76,9.39c0,0-10.64,21-10.64,21s-7.17,18-7.17,18-7.92,12-7.92,12-9.57,19.83-9.57,19.83-4.26,5.26-4.26,5.26-5.85,10.91-5.85,10.91-7.81,11-7.81,11-10.74,17-10.74,17-5.32,8.96-5.32,8.96-6.5,7.13-6.5,7.13-9.3,12.73-9.3,12.73-4.85,5.5-4.85,5.5-7.53,11.44-7.53,11.44-5.17,5.37-5.17,5.37-5.12,7.87-5.12,7.87-12.43,13-12.43,13-5.7,7.72-5.7,7.72-18.49,18.54-18.49,18.54-9.58,10.22-9.58,10.22-6.42,5.84-6.42,5.84-5.09,5.46-5.09,5.46-10.87,7.52-10.87,7.52-13.21,13.5-13.21,13.5c-2.73,2.49-4.93,3.41-7.83,5.5c0,0-8.42,6.95-8.42,6.95s-8.54,6.02-8.54,6.02-15.21,13.06-15.21,13.06-12.83,7.5-12.83,7.5-16.83,11.03-16.83,11.03-6.21,4.54-6.21,4.54-6.96,3.59-6.96,3.59-7.83,5.77-7.83,5.77-5.26,2.13-5.26,2.13-9.91,5.13-9.91,5.13-19,10.66-19,10.66-17,7.74-17,7.74-15,7.68-15,7.68-8,2.74-8,2.74-7,3.44-7,3.44-7,1.77-7,1.77-9,4.31-9,4.31-16,4.19-16,4.19-17,5.92-17,5.92-6,1.43-6,1.43-25,8.61-25,8.61-10,.75-10,.75-7,2.19-7,2.19-8.96,1.93-8.96,1.93-9.05.92-9.05.92-10.99,2.41-10.99,2.41-8,.66-8,.66-9,2.57-9,2.57-12,0-12,0c-7.19,1.14-4.72,3.04-16,3.06c0,0-25,0-25,0s-34,3-34,3c-18.44-.17-11.38-1.68-20-3c0,0-22,0-22,0s-14.72,0-14.72,0c-4.93-.63-6.32-1.99-10.28-2.67c0,0-11-.92-11-.92s-9-2.15-9-2.15-11-1.38-11-1.38-8-2.21-8-2.21c-3.47-.58-4.43.1-7,0c0,0-16-2.16-16-2.16s-6-2.1-6-2.1-7-1.02-7-1.02-35-10.16-35-10.16-9-3.34-9-3.34-14-3.85-14-3.85-24-9.49-24-9.49-8-2.47-8-2.47c-13.15-5.11-15.23-8.28-19.01-9.86c0,0-9.99-2.49-9.99-2.49s-31-17.61-31-17.61-9-4.6-9-4.6-6-2.44-6-2.44-6-4.24-6-4.24-6-3.48-6-3.48-15-10.56-15-10.56-24-15.1-24-15.1-13.04-10.81-13.04-10.81-15.54-11.29-15.54-11.29-15.51-14.14-15.51-14.14-9.91-7.64-9.91-7.64-18.09-17.77-18.09-17.77-8.53-7.47-8.53-7.47-5.71-6.74-5.71-6.74-17.37-18.84-17.37-18.84-6.77-8.71-6.77-8.71-9.9-9.47-9.9-9.47-5.02-7.82-5.02-7.82-8.12-9-8.12-9-3.86-6-3.86-6-15.19-21-15.19-21-8.8-11.28-8.8-11.28-11.39-17.72-11.39-17.72-6.22-9.28-6.22-9.28-3.29-6.72-3.29-6.72-5.67-8-5.67-8-8.41-16-8.41-16-4.6-7-4.6-7-3.99-8-3.99-8-4.32-7-4.32-7-4.06-10-4.06-10-6.89-13-6.89-13-2.6-9-2.6-9-11.4-25-11.4-25-2.35-8-2.35-8-3.39-8-3.39-8-5.11-15-5.11-15-6.5-17-6.5-17-2.24-11-2.24-11-5.64-16-5.64-16-4.24-17-4.24-17-2.78-7-2.78-7-1.96-17.96-1.96-17.96-2.12-5.32-2.12-5.32-.94-5.72-.94-5.72-2.81-9-2.81-9-.65-10-.65-10-2.01-8-2.01-8s0-9,0-9-3.27-11-3.27-11s0-8,0-8-1.75-15-1.75-15s0-20,0-20c-.16-11.47-2.38-11.39-2.93-16.09c0,0,.89-19.91.89-19.91s0-457,0-457s0-327,0-327s0-86,0-86s0-23,0-23c-.04-3.47-.89-5.91,1.12-9.38ZM34.23,35.6C30.16,38.63,31.94,42.38,32,47c0,0,0,49,0,49s0,24,0,24-.96,16-.96,16s.8,15,.8,15s0,74,0,74s0,49,0,49s0,69,0,69s0,11,0,11s0,38,0,38s0,22,0,22s0,27,0,27s0,56,0,56s0,8,0,8s0,10,0,10s0,50,0,50s0,28,0,28s0,16,0,16s0,10,0,10s0,9,0,9s0,20,0,20s0,11,0,11s0,10,0,10s0,12,0,12s0,10,0,10s0,30,0,30s0,23,0,23-.57,12-.57,12s.66,13,.66,13s0,15,0,15s0,13,0,13-.75,6-.75,6s.64,10,.64,10s0,13,0,13s0,21,0,21s0,14,0,14s0,33,0,33s0,22,0,22c.32,10.29,3.16,6.22,3.18,19c0,0,0,21,0,21s1,14,1,14c.03,3.18-.23,6.96.63,10c1.12,3.93,3.47,6.48,4.37,11c0,0,0,9,0,9s2.79,9,2.79,9s5.47,34,5.47,34s3.32,8,3.32,8s2.74,17,2.74,17s3.78,13,3.78,13s1.53,7,1.53,7s9.42,25,9.42,25c2.79,7.73,1.33,8.44,2.91,13c0,0,8.13,19,8.13,19s3.48,6,3.48,6s3.71,10,3.71,10s4.6,8,4.6,8s5.57,18.96,5.57,18.96s4.84,7.13,4.84,7.13s2.66,6.91,2.66,6.91s5.39,9.96,5.39,9.96s6.48,9.05,6.48,9.05s9.77,18.82,9.77,18.82s4.65,7.18,4.65,7.18s2.23,5.95,2.23,5.95s5.72,9.88,5.72,9.88s7.42,9.16,7.42,9.16s3.27,6,3.27,6s7.15,10.68,7.15,10.68s5.34,5.5,5.34,5.5s4.41,6.82,4.41,6.82s11.84,15,11.84,15s4,5.72,4,5.72s11.04,12.28,11.04,12.28s5.18,7.63,5.18,7.63s10.72,9.25,10.72,9.25s9.13,9.54,9.13,9.54s16.88,18.37,16.88,18.37s18.26,17.63,18.26,17.63s5.26,5.36,5.26,5.36s7.74,5.4,7.74,5.4s10.45,9.5,10.45,9.5s5.72,3.81,5.72,3.81s8,6.83,8,6.83s12.99,9.1,12.99,9.1s8.33,7.4,8.33,7.4s10.68,6.23,10.68,6.23s8.28,5.84,8.28,5.84s17.68,10.22,17.68,10.22s7.13,5.26,7.13,5.26s38.91,21.17,38.91,21.17s19,7.18,19,7.18s20,8.94,20,8.94s6,2.02,6,2.02s7,3.6,7,3.6s8,1.71,8,1.71s19,7.3,19,7.3s8,2.03,8,2.03s16,5.27,16,5.27s14,2.02,14,2.02s8,2.98,8,2.98s10,.93,10,.93c12.76,2.7,24.77,6.32,38,6.7c4.15-.18,8.97-.45,13,0c9.22,1.77,6.44,3.76,19,3.62c0,0,25,0,25,0s9,2.18,9,2.18s11,0,11,0s12,0,12,0c9.85-1.25,4.13-2.12,18-2.02c0,0,17,0,17,0c12.17-.02,9.17-1.88,18-3.53c0,0,24-1.47,24-1.47c13.35-.15,6.57-.73,16-3.03c0,0,7-.75,7-.75s6-1.83,6-1.83s7-.78,7-.78s9-3.09,9-3.09s22-4.62,22-4.62s15-5.04,15-5.04s16-4.52,16-4.52s11-5.57,11-5.57s16-4.78,16-4.78s18-8.25,18-8.25s8-4.61,8-4.61s9-2.81,9-2.81s14-8.77,14-8.77s17.72-7.5,17.72-7.5c6.46-3.37,7.62-5.5,11.32-7.69c0,0,7.96-3.62,7.96-3.62s14-8.7,14-8.7s11-7.45,11-7.45s6-5.01,6-5.01s5.83-2.69,5.83-2.69s8.16-5.67,8.16-5.67s6.29-5.58,6.29-5.58s6.13-4.11,6.13-4.11s6.75-7.1,6.75-7.1s7.03-4.27,7.03-4.27s9.82-9.15,9.82-9.15s12.9-10.3,12.9-10.3s23.97-24.2,23.97-24.2s23.79-23.68,23.79-23.68s5.59-7.66,5.59-7.66s12.05-11.59,12.05-11.59s6.59-10.57,6.59-10.57s14.32-17.01,14.32-17.01s7.05-11.91,7.05-11.91s5.1-6.18,5.1-6.18s3.94-6.63,3.94-6.63s11.14-16.28,11.14-16.28s6.67-11,6.67-11s3.24-7,3.24-7s6.39-8.17,6.39-8.17s8.7-14.83,8.7-14.83s2.67-7,2.67-7s4.59-9.72,4.59-9.72s7.69-14.28,7.69-14.28s11.93-27,11.93-27s8.55-18,8.55-18s2.77-10,2.77-10s4.05-9,4.05-9s8.75-28,8.75-28s1.15-6,1.15-6s3.79-11,3.79-11s1.91-10,1.91-10s5.23-13,5.23-13s.86-7,.86-7s1.98-6,1.98-6s2.26-11,2.26-11s.55-8,.55-8s2.44-9,2.44-9s.71-8,.71-8s2.29-8,2.29-8s.7-9,.7-9c2.06-12.33,2.6-4.65,2.68-21c0,0,2-20,2-20s0-21,0-21c.14-10.09,2.98-6.94,3-20c0,0,0-278,0-278s0-455,0-455s0-107,0-107s0-24,0-24c-.01-1.82.15-4.92-1.02-6.4-1.57-1.98-5.68-1.6-7.98-1.6c0,0-832,0-832,0s-263,0-263,0-82,0-82,0-40.77.6-40.77.6ZM424,173c.56,6.18,3.58,15.8,6.99,20.96c2.04,3.09,5.23,5.45,7.97,7.91c7.93,7.11,13.66,11.97,25.04,12.13c4.01.05,8.19.32,12-1.11c9.97-3.73,16.36-13.86,10.64-23.89-2.38-4.16-9.17-10.38-13.64-12.11c0,0-9-2.52-9-2.52-8.37-3.62-16.3-7.6-24-12.42-12.13-7.6-19.64-11.52-24.67-25.95-1.41-4.06-2.45-4.26-2.36-9-.35-3.32-.35-8.81,0-12c1.07-4.57,7.06-17.6,10.22-20.9c3.7-3.86,6.39-4.26,10.81-6.47c14.42-7.21,19.2-7.66,35-7.63c6.2.01,12.07,1.94,18,3.63c2.88.82,5.89,2.58,9,2.32c5.25-.44,5.46-5.02,11.01-5.8c9.9-1.38,8.01,9.36,8.12,15.85c0,0,0,25,0,25-.33,10.38-8.22,9.31-11.43,6.28c0,0-10.33-19.24-10.33-19.24-2.74-3.59-14.1-11.76-18.37-13.32-9.4-3.43-23.27-3.04-29.26,6.3-1.67,2.59-1.73,5.01-1.73,7.98c0,11.56,8.91,14.8,17.99,19.33c0,0,39,17,39,17c6.38,4.06,16.66,16.47,19.28,23.67.72,1.97,1.59,8.75,1.68,11c.21,5.29-2.3,21.59-5.04,25.87-3.96,6.19-23.77,18.62-30.92,20.21c0,0-25,1.83-25,1.83s-10.83-1.4-10.83-1.4c-6.41,0-5.62.47-12.17-1.86-1.87-.66-6.44-2.82-8-2.84-3.88-.06-5.43,3.97-9.09,5.45-10.31,4.18-11.9-6-11.91-13.26c0,0,0-32,0-32c.04-2.94-.02-6.18,2.43-8.26c3.22-2.74,8.82-1.41,12.57-.74Zm594.09-92.46c4.89-.85,13.68-.62,18.91-.54c6.65.12,5.78,1.24,10,1.98c0,0,5,0,5,0s6,2.96,6,2.96c2.18.94,11.9,4.03,14,4c6.16-.1,11.95-13.3,19.35-7.95c5.3,3.84,2.79,16.54,2.66,22.01c0,0,.69,23,.69,23-.47,3.16-1.46,7-4.81,8.22-4.8,1.75-9.08-2.73-11.53-6.24c0,0-5.14-7.89-5.14-7.89s-17.32-18.4-17.32-18.4c-8.33-6.22-15.11-6.44-24.9-5.78-3.97.27-7.13-.3-10.99,1.31-4.32,1.8-10.62,7.91-13.14,11.78-1.35,2.09-1.86,3.82-2.88,6-5.63,12.01-1.96,6.35-4.04,16-.74,3.41-2.5,6.59-2.6,10c0,0,.65,9,.65,9s0,21.04,0,21.04c.86,8.54,8.05,27.65,14.3,33.48c9.04,8.45,31.97,15.11,40.78,3.31c4.1-5.49,3.51-12.37,3.22-18.83-.31-6.75-4.36-14.4-11.3-16.31-3.24-.89-6.23.51-8.4-1.47-2.07-1.88-2.71-8.29,2.46-10.31c2.9-1.14,5.97-.17,8.94,0c0,0,24-1.79,24-1.79s25,0,25,0c5.55-.29,15.94-1.8,16.84,5.89c1.2,10.38-10.76,5.79-14.82,13.09-1.12,2.03-1,4.65-1.02,6.9c0,0,0,20,0,20-.09,6.39-2.65,11.91-9,14.42c0,0-8,2-8,2-3.9,1.28-21.51,5.53-25,5.58c0,0-26,1-26,1s-20-1.3-20-1.3c-2.76-.57-18.35-6.5-21-7.97-7.1-3.93-20.71-15.13-25.02-21.82c0,0-3.93-7.91-3.93-7.91-2.66-4.69-4.41-6.39-6.15-12-.97-3.15-1.86-11.56-1.9-15-.22-18.88.95-34.71,11.95-50.99c6.37-9.41,20.47-20.17,31.05-24.33c0,0,11-3.3,11-3.3s6.83-.86,6.83-.86s5.26-1.98,5.26-1.98ZM171,160c0,0,0,11,0,11c0,6.64-.92,24.75.88,30.01c1.16,3.4,2.84,7.2,6.16,8.97c2.28,1.21,5.43,1.01,7.96,1.02c11.98.02,7.89.53,19-2.71c11.88-3.45,12.11-2.67,21.83-11.87c2.41-2.28,7.65-7.85,9.54-10.42c2.97-4.04,6.25-10.73,12.52-9.35c4.71,1.04,4.18,6.62,4.1,10.35-.36,15.67-3,14.23-5.34,22-1.29,4.28.13,12.87-6.69,14.9-1.39.16-4.42.1-5.96,0c0,0-113,0-113,0-4.66.09-11.4.51-11.68-5.91-.06-1.32.39-3.44,1.08-4.57c2.72-4.45,8.54-2.11,12.56-3.6c5.66-2.11,5.98-8.66,6.04-13.82c0,0,0-86,0-86-.08-5.56-.94-8.87-6.02-11.99-5.1-3.15-11.85-1.12-12.71-8.03-.19-1.53.08-3.38.91-4.7c2.45-3.92,7.07-2.28,10.82-2.72c0,0,6,0,6,0s9,0,9,0s16,0,16,0s9,0,9,0s6,0,6,0s9,0,9,0s6,0,6,0s8,0,8,0c2.62-.05,3,.32,6,0c0,0,7,0,7,0s9,0,9,0s16,0,16,0s7.96,0,7.96,0c3.9.78,4.82,3.95,4.85,7.44c0,0,0,10,0,10s0,17,0,17c-.03,4.83-.19,12.88-6.81,12.54-1.42-.07-3.35-.69-4.44-1.63-1.82-1.56-4.06-12.48-5.86-15.91-4.15-7.94-16.88-14.84-25.7-15c0,0-17,0-17,0-1.68.01-4.26-.06-5.79.6-4.67,2.03-6.15,9.89-6.21,14.4c0,0,0,32.99,0,32.99c2.59.16,5.44.55,7.99,0c5.4-1.22,14.8-8.25,17.62-12.99c2.23-3.74,4.12-11.91,6.89-14.26c1.23-1.05,2.88-1.56,4.49-1.49c6.37.29,6,7.15,6.01,11.75c0,0,0,34,0,34s.7,12,.7,12c-.46,4.91.25,13.37-5.72,14.67-10.19,2.21-11.37-15.57-13.91-19.57-3.56-5.59-17.68-9.37-24.07-9.1ZM722.88,98c-2.35-.6-4.29-1.1-6.88-.78-6.15.78-17.38,6.38-20.41,11.87-4.35,7.89-3.2,13.07-7.81,17.76-4.67,4.76-11.04,3.6-13.13-2.87-.75-2.33-.65-5.52-.65-7.98c0,0,0-23,0-23c.05-3.14.11-6.98,2.65-9.26c1.99-1.8,4.84-1.7,7.35-1.57c0,0,13.17,0,13.17,0s6.83,0,6.83,0s8,.76,8,.76s10.96-.56,10.96-.56s10.04,0,10.04,0s7,0,7,0s24,0,24,0s11,0,11,0s15,.58,15,.58s14-.79,14-.79c9.38.79,7.74,8.06,8.04,14.84c0,0,.96,18,.96,18-.01,5.18-.22,13.18-7.01,14.13-1.72.23-3.22-.29-4.39-1.58-1.59-1.72-1.42-4.07-2.53-6.27c0,0-4.23-6.29-4.23-6.29-2.06-3.97-1.88-7.78-7.02-11.43-3-2.13-4.76-2.02-7.82-3.24-3.72-1.47-9.57-5.55-13.4-1.72-1.92,1.92-1.59,5.86-1.6,8.4c0,0,0,84,0,84c.01,4.99,1.64,15.92,6.14,18.72c6.1,3.8,14.28.29,14.98,6.39.96,8.47-8.66,7.88-14.12,7.89c0,0-56,0-56,0-5.54-.01-14.42-.7-12.39-8.94c1.58-6.41,8.06-2.25,14.33-6.15c5.32-3.3,5.05-10.38,4.94-15.91c0,0,0-53,0-53s0-13,0-13s0-29,0-29ZM290,185.61c6.88.19,17.48,7.05,20.11,13.48c1.06,2.57.92,7.08.89,9.91-.04,2.87-.03,5.42-1.74,7.89-2.48,3.59-13.79,9.65-18.26,9.86-2.03.32-6.06.31-8,0-5.46-1.52-13.64-8.31-15.35-13.75-.77-2.44-.69-6.39-.65-9c.21-11.47,13.08-17.18,23-18.39Zm537,.92c17.71-2.83,32.63,18.78,20.5,33.34-2.2,2.65-5.41,3.83-8.5,5.13-3.79,1.58-5.83,2.14-10,1.91-2.5-.14-7.78-.92-9.91-2.08-1.92-1.05-3.65-2.99-5.38-4.56-7.51-8.02-7.98-19.54,0-27.93c2.5-2.94,9.36-4.69,13.29-5.81Zm318,0c8.83-1.43,20.18,3.23,24.18,11.56c3.69,7.67.44,22.53-8.22,25.26-5.34,1.84-20.2,2.87-24.96,0-9.01-5.7-10.93-19.74-4.62-28.13c2.6-3.46,9.53-7.38,13.62-8.69Zm-590,1.15c6.93-1.51,8.8-.23,15,2.45c2.17.94,4.55,1.6,6.2,3.38c8.44,9.06,5.94,25.37-5.37,31.08-3.48,1.75-7.99,1.46-11.83,1.41-2.05-.03-4.01-.03-6-.65-8.4-2.59-17.31-13.11-14.3-22.35c2.54-7.85,9.02-12.36,16.3-15.32ZM375,495c-1.67-6.46-2.86-5.89-5.78-11c0,0-3.74-7.83-3.74-7.83-1.5-2.15-4-4.07-6.46-8.14c0,0-3.44-7.12-3.44-7.12-3.52-5.48-8.13-10.88-10.72-16.91-2.53-5.88-1.34-9.83-2.18-15c0,0-1.88-8-1.88-8-1.46-9.51-1.69-19.39-1.8-29-.14-11.26-3.03-7.44-3-25c.03-12.6,4.94-10.93,14-17.37c0,0,14-8.59,14-8.59s7-5.34,7-5.34c4.98-3.67,10.45-6.36,16-9.02c5.56-2.66,9.53-6.14,15.99-6.58c9.4-.63,16.92,6.03,24,11.35c0,0,7.18,5.09,7.18,5.09s7.83,6.83,7.83,6.83s17,12.02,17,12.02s6,5.35,6,5.35s5.67,4.52,5.67,4.52c2.37,2.39,13.06,21.06,14.71,24.74c0,0,3.3,7.96,3.3,7.96s5,7.13,5,7.13c1.68,2.56,6.42,11.7,8.59,12.79c2.96,1.48,10.52-2.16,13.73-3.11c0,0,11-2.5,11-2.5s17-5.18,17-5.18s15.77-2.11,15.77-2.11c3.68-2.25,3.22-7.26,3.23-10.98c0,0,1-18,1-18s0-16,0-16c-.07-5.32-1.68-10.72-.62-16c.84-4.2,3.57-8.98,5.16-13c0,0,2.64-7,2.64-7s4.19-7.91,4.19-7.91s2.03-7.13,2.03-7.13s5.65-12.96,5.65-12.96s1.41-7,1.41-7c1.22-4.73,7.08-18.67,10.65-21.57c3.53-2.87,13.91-2.43,18.72-2.38c0,0,19.17,0,19.17,0s11,.77,11,.77s7-.78,7-.78s15,0,15,0c3.44-.03,10.78.08,13.61,1.97c3.3,2.19,5.14,8.41,6.48,11.99c0,0,5.52,11,5.52,11s2.29,8,2.29,8s8.22,15,8.22,15s3.06,11,3.06,11c2.02,5.57,4.93,11.04,5.64,17c0,0-.82,15-.82,15s0,35,0,35c.01,2.66-.32,6.33,1.56,8.43c1.41,1.58,8.89,3.08,11.44,3.89c0,0,7,1.92,7,1.92s6,2.27,6,2.27s6,.87,6,.87s7,2.09,7,2.09s8,1.16,8,1.16c5.22,1.08,10.86,5.17,14.52,4.24c3.55-.92,5.27-7.79,6.85-10.87c0,0,7.51-11,7.51-11s7.33-14,7.33-14s4.72-7,4.72-7c1.85-3.37,1.69-5.7,4.37-8.96c3.69-4.49,7.61-5.16,11.66-8.42c0,0,6.21-5.66,6.21-5.66s6.51-4.18,6.51-4.18s20.32-16.1,20.32-16.1c5.92-3.89,12.49-11.68,20-12.52c6.19-.7,19.43,7.33,25.58,9.84c0,0,14.33,6,14.33,6c4.6,2.91,2.75,3.98,13.09,9.24c5.41,2.76,14.58,6.43,17.56,11.8c5.11,9.21,1.22,22.41-.97,31.96c0,0-1.59,23-1.59,23-.07,10.49-2.87,7.7-3.21,18c.18,2.48.37,6.74,0,9-1.48,4.86-13.32,22-16.58,27c0,0-4.76,9-4.76,9-3.05,4.53-11.4,12.09-8.8,18.08c1.17,2.69,10.09,11.22,12.63,13.24c0,0,6.54,4.35,6.54,4.35c2.8,2.24,12.93,12.51,15.04,15.33c1.58,2.12,5.96,8.26,8.46,8.87c2.24.55,4.72-1.3,6.68-2.21c0,0,6.83-2.75,6.83-2.75s8.17-5.33,8.17-5.33s10-5.68,10-5.68s9-6.37,9-6.37c2.03-1.06,10.91-4.67,13-5.15c0,0,6-1.01,6-1.01c5.53-1.53,4.32-2.28,11-2.37c17.26-.23,10.52-1.93,19-3.01c0,0,14,0,14,0c4.65-.88,4.7-2.88,14-2.74c3.79-.29,14.16-1.07,17,0c5.16,2.63,10.39,12.69,13.38,17.66c0,0,5.86,8.1,5.86,8.1s13.04,21.99,13.04,21.99c3.81,6.42,13.49,20.35,9.08,27.57c0,0-16.14,22.71-16.14,22.71s-6.73,7.14-6.73,7.14-4.29,6.58-4.29,6.58-6.88,8-6.88,8c-2.82,3.39-10.71,15-13.43,16.79c0,0-28.89,17.03-28.89,17.03s-9,4.37-9,4.37c-3.66,2.14-11.4,4.8-12.71,8.83-1.29,4,5.43,16.29,6.23,20.98c0,0,.53,8,.53,8s5.42,18,5.42,18c1.69,7.52-1.43,14.24,9.57,14.16c0,0,8.96,0,8.96,0s37,0,37,0c17.76.04,21.81,5.03,37,11.67c0,0,18,7.62,18,7.62c4.6,1.65,5.98,1.53,11,3.99c0,0,7,3.44,7,3.44c6.59,2.55,10.84,1.56,11,13.12c0,0,0,13,0,13c.13,7.67,3.66,10.11,3.66,20c0,0-.93,18-.93,18-.97,5.14-2.62,3.91-2.73,12c0,0,0,5,0,5-.17,11.87-7.32,10.76-16,15.39c0,0-31,12.67-31,12.67s-8,4.14-8,4.14-7,2.21-7,2.21c-7.69,3.43-8.76,5.47-18,5.59c0,0-47,0-47,0-2.55.01-6.47-.32-8.4,1.6-2.35,2.34-3.37,13.85-3.77,17.4-.51,4.49-5.6,20.25-7.38,25-1.43,3.79-4.7,15.06-1.84,18.35c0,0,13.39,7.07,13.39,7.07s13.91,7.67,13.91,7.67s6.18,5,6.18,5s13.82,7.37,13.82,7.37c4.19,2.87,5.3,5.76,8.41,9.54c0,0,11.9,15,11.9,15s3.97,6.54,3.97,6.54s10.13,10.74,10.13,10.74s11.09,15.72,11.09,15.72c1.61,2.07,5.47,5.48,6.32,7.28c1.5,3.16-.65,6.94-2.12,9.72c0,0-7.17,12-7.17,12s-5.8,11-5.8,11-4.1,8-4.1,8-13.45,22-13.45,22c-2.06,3.39-4.87,9.73-8.15,11.56-4.85,2.7-12.77-.98-17.94-1.46c0,0-15-1.29-15-1.29s-8-2.07-8-2.07-6,0-6,0-24-1.74-24-1.74c-9.48-.13-23.9-8.13-32-13.13c0,0-9.72-5.51-9.72-5.51s-5.32-4.83-5.32-4.83c-2.94-2.31-13.39-8.28-16.96-7.49-3.5.78-7.15,5.26-9.58,7.79c0,0-16.38,17.89-16.38,17.89s-8.05,8.24-8.05,8.24c-2.16,1.89-7.95,6.35-9.03,8.62-1.13,2.38.63,4.42,1.76,6.42c0,0,8.84,14,8.84,14s10.23,18,10.23,18s2.35,5.91,2.35,5.91c1.86,3.4,6.19,6.9,8.23,14.09.96,3.4.59,10.19.63,14c0,0,1.83,18,1.83,18s0,8,0,8c1.25,9.47,2.87,2.3,3.17,21c.12,7.12,3.25,10.45.98,15-2.2,4.38-11.6,9.72-15.98,12.58c0,0-9,5.78-9,5.78s-7.91,3.81-7.91,3.81-7.13,5.28-7.13,5.28-16.96,8.46-16.96,8.46c-5.5,2.4-8.55,5.58-15,4.98-7.13-.66-17-9.85-22.25-14.67-5.13-4.71-14.15-11.85-19.91-15.63-10.64-6.97-22.09-12.71-28.17-24.59c0,0-4.98-11-4.98-11s-1.7-6-1.7-6c-1.98-3.93-6.02-6.36-8.53-12.04-2.6-5.92-2.56-12.97-10.46-14.5-3.92-.76-7.58,1.55-11,3.09c0,0-14,4.82-14,4.82s-14,1.85-14,1.85c-3.72.64-5.11,2.21-8,2.8-3.42.7-7.04-.93-10.69,2.55-2.8,2.67-2.01,5.08-2.03,8.43c0,0,0,12,0,12s0,29,0,29s0,11,0,11c-.6,7.81-4.79,15.89-7.82,23c0,0-6.79,15-6.79,15s-2.53,8-2.53,8-3.45,7-3.45,7c-4.43,9.45-7.44,20.96-18.69,24.21-3.07.89-5.85.79-9,.79c0,0-56,0-56,0-2.39,0-5.78.13-7.98-.74-7.31-2.87-7.93-12.19-10.66-18.22-3.05-6.72-2.48-1.11-6.08-13.04c0,0-8.51-22-8.51-22-4.89-10.4-10.71-19.04-10.67-31c0,0,0-33,0-33-.09-3.99,1.94-15.24,0-17.59-3.64-5.26-10.61-4.71-16.1-5.67c0,0-7.28-2.13-7.28-2.13-9.62-1.88-12.1-.44-21.72-4.61-6.7-2.91-10.49-6.31-18-4-.23,7.1-6.35,12.69-9.12,19c0,0-3.68,9-3.68,9s-5.71,9-5.71,9c-1.6,3.23-5.94,12.54-7.9,14.9-3.71,4.43-11.48,8.71-16.17,12.23c0,0-7.42,6.46-7.42,6.46s-6.99,4.68-6.99,4.68c-7.21,5.91-3.47,4.25-12.92,10.19-3.51,2.21-3.39,3.09-5.6,4.84c0,0-5.49,3.22-5.49,3.22-3.88,2.55-7.16,6.72-12,7.32-6.2.77-14.61-5.35-20-8.42c0,0-15-8.31-15-8.31s-8-3.89-8-3.89-9-6.34-9-6.34c-5.69-3.16-16.69-8.1-19.91-13.97-1.33-2.64-.15-15.81,0-19.91.08-9.69,3.76-7.33,4.84-16c0,0,0-9,0-9s.99-8,.99-8c.86-11.07.29-22.84,5.57-33c0,0,10.48-18.83,10.48-18.83s3.98-5.26,3.98-5.26s3.85-6.91,3.85-6.91c2.88-4.16,8.38-9.32,7.89-15-.4-4.65-7.32-8.97-10.69-11.95c0,0-21.91-22.04-21.91-22.04-2.06-2.2-7.4-9.26-9.19-10.32-4.84-2.87-9.98,2.79-13.9,5.13c0,0-10.72,5.51-10.72,5.51-12.32,7.4-8.79,7.83-24.28,14.72-7.64,3.39-17.68,5.16-26,5.71c0,0-8,0-8,0s-9,2.85-9,2.85-13,.56-13,.56-21,2.83-21,2.83c-3.05.03-8.33.34-10.96-1.02-3.73-1.94-7.27-7.55-9.63-10.99c0,0-17.43-30.99-17.43-30.99-3.39-7.11-4.25-5.97-7-10.17-2.11-3.21-5.22-14.04-4.75-17.83.89-7.23,10.86-19.4,15.57-25c0,0,6.53-8.96,6.53-8.96s7.11-7.13,7.11-7.13s3.81-6.91,3.81-6.91c6.12-9.6,6.38-8.99,14.31-15.92c2.93-2.56,3.93-4.36,7.53-6.4c0,0,8.91-4.4,8.91-4.4s9-6.33,9-6.33s13-7.14,13-7.14c3.15-1.82,10.56-4.31,12.08-6.95c2.15-3.73-3.35-14.82-4.87-18.86-1.33-3.54-.9-4.78-1.58-8c0,0-3.25-10-3.25-10s-.79-11-.79-11-2.31-6-2.31-6c-2.36-7.13.77-11.92-11.28-12-15.19-.09-8.32,3.98-24,4-11.27.02-26.23.44-37-2.35c0,0-28-11.72-28-11.72-9.77-3.89-4.21.49-17-6.83-5.44-3.11-16.64-5.7-19.83-11.28-1.65-2.91-.8-6.31-1.64-9.82-.71-3-1.87-4.39-2.34-8-.82-6.26.8-12.69.87-19c0,0,0-30,0-30-.07-3.76-1.63-14,0-16.57c1.68-2.29,4.56-2.27,6.94-3.11c0,0,6-2.71,6-2.71c4.43-1.75,5.91-1.28,12-4.28c0,0,9-4.97,9-4.97s9-2.46,9-2.46s14-5.57,14-5.57c7.23-2.93,9.2-5.83,17.91-7.47c9.49-1.79,25.51-.3,35.67-.54c5.81-.15,21.68,1.05,26.27-1.63c4.47-2.61,2.27-6.64,4.05-12.69c0,0,3.14-17,3.14-17s3.18-9,3.18-9s1.46-8,1.46-8c1-3.34,2.33-4.92,2.67-9c.42-5.02-2.63-7.34-6.35-10.15c0,0-29-14.34-29-14.34-3-1.46-16.74-9.7-18.82-11.72-3.87-3.76-9.58-13.01-12.87-17.79c0,0-6.9-8-6.9-8s-4.02-6.83-4.02-6.83-8.02-11.17-8.02-11.17-6.82-8-6.82-8-3.58-5.79-3.58-5.79c-2.24-3.27-4.29-3.64-3.63-8.23.74-5.09,9.31-19.85,12.15-24.98c0,0,10.72-19,10.72-19c3.25-5.88,1.72-5.9,7.06-13c3.27-4.35,6.96-11.26,11.91-13.73c6.57-3.27,12.27.67,16.82,1.6c0,0,8,0,8,0c10.26.25,12.04,3.4,18,3.9c3.35.29,6.76-.84,11,0c0,0,9,2.94,9,2.94s13,0,13,0c3.18.28,12.78,5.37,16,7.17c0,0,6.72,4.49,6.72,4.49s6.29,2.71,6.29,2.71s14.99,8.47,14.99,8.47c3.21,2.07,8.24,7.34,11.98,6.87c3.55-.43,9.27-8.55,11.94-11.42c0,0,12.55-12.28,12.55-12.28c6.32-7.06,10.81-15.41,20.53-18.72Zm-69,562c8.69.01,14.64-8.23,24-12.73c2.81-1.35,5.74-3.32,9-2.64c6.39,1.32,7.34,7.97,13.29,13.95c0,0,14.13,13.66,14.13,13.66c8.16,8.35,14.73,16.52,24.54,23.07c4.44,2.96,12.85,9.88,12.09,15.69-.61,4.62-10.08,17.48-13.17,22c0,0-6.93,12-6.93,12s-8.34,14-8.34,14-5.47,9-5.47,9-4.74,16-4.74,16c-.36,1.82-.01,3.24,0,5c.51,7.43-2.17,10.81-3.2,16c0,0,0,13.58,0,13.58-.54,4.41-1.99,3.41-1.84,10.42.07,3.29-.25,6.84,2.16,9.45c2.89,3.12,8.74,3.97,12.44,6.42c0,0,6.21,5.06,6.21,5.06s21.83,11.64,21.83,11.64c4.91,2.1,9.06,4.08,13.96.77c0,0,18.13-15.67,18.13-15.67s19.91-14.75,19.91-14.75c3.1-2.27,6.86-4.07,9.25-7.1c2.38-3.04,3.24-6.63,5.12-9.78c0,0,4.39-6.2,4.39-6.2s2.44-6.26,2.44-6.26s6.31-10.58,6.31-10.58s8.6-15,8.6-15s4.37-8.98,4.37-8.98c2.02-3.22,4.46-5.66,8.52-5.51c2.74.11,17.12,6.64,21,8.14c4.82,1.88,5.47.65,9.17,1.77c3.66,1.12,6.99,3.2,10.83,4.02c0,0,6,0,6,0c3.49.87,5.55,2.82,10,3.36c0,0,7,.52,7,.52c3.39.81,4.42,1.99,9,2.51c3,.33,7.14-.35,9.49,1.77c3.18,2.86,2.5,15.83,2.57,20.4c0,0,0,35,0,35s0,18,0,18c2.24,10.89,4.63,10.4,8.27,18c0,0,2.53,8,2.53,8s4.24,8,4.24,8s8.27,20,8.27,20c.99,1.92,1.84,5.94,3.22,6.94c1.52,1.1,11.97,1.06,14.41,1.06c0,0,36,0,36,0c2.36,0,5.72.2,7.79-1.02c3.19-1.89,3.8-5.72,4.68-8.98c0,0,5.91-16,5.91-16s5.9-10,5.9-10c1.09-2.97.49-5.34,2.63-10c1.76-3.83,3.97-5.7,5-10c1.63-6.8.82-17.01.99-24.09c0,0,0-35.91,0-35.91.05-5.06-.96-13.76,2.61-17.7c3.75-4.15,15.12-4.71,20.49-5.51c0,0,34-8.6,34-8.6s9-4.09,9-4.09s9-2.27,9-2.27c3.75-1.41,8.87-4,12.82-1.8c1.65.92,9.92,11.95,11.11,13.97c0,0,3.12,7,3.12,7s6.66,12.83,6.66,12.83c1.57,2.31,2.96,2.95,4.81,6.21c0,0,4.04,9.96,4.04,9.96c2.71,5.02,19.43,20.79,24.44,24.44c0,0,7.58,4.77,7.58,4.77c6.33,5.26,16.74,15.45,24.42,17.94c8.67,2.82,18.35-5.47,26-9c5.21-2.4,15.36-8.4,20-11.81c2.12-1.56,5.98-3.6,7.18-5.87.82-1.57,1.5-15.64,1.04-17.46-.59-2.32-2.01-3.62-2.39-6.29c0,0-1.04-15.72-1.04-15.72-1.33-9.16-2.58-2.94-2.79-19-.16-11.75-13.07-27.41-19.09-38c0,0-7.2-11-7.2-11s-3.47-6.91-3.47-6.91c-2.72-4.19-11.04-9.81-5.35-19.09c5.58-9.1,9.7-9.36,16.11-14.39c0,0,16.99-15.65,16.99-15.65c6.16-6.06,9.17-14.07,17.01-18.45c5.1-2.85,13.32-9.28,19-8.02c4.46.98,10.91,5.81,15,8.18c0,0,14,8.87,14,8.87s17,8.86,17,8.86c7.74,4.03,9.31,7.47,19,7.6c17.51.23,11.74,2.98,24,3.15c0,0,9,0,9,0s6,2.31,6,2.31c3.77,1.06,11.4.77,14.98-.82c1.64-.73,3.15-1.66,4.32-3.03c0,0,10.9-18.61,10.9-18.61s10.89-20,10.89-20c1.23-2.47,3.52-5.12,3.26-8-.34-3.67-7.7-11.77-10.21-15.04c0,0-6.6-7.96-6.6-7.96s-3.82-5.83-3.82-5.83-4.09-4.34-4.09-4.34-4-5.66-4-5.66-4.01-4.17-4.01-4.17c-3.88-4.62-.4-4.14-9.91-11.33-3.43-2.6-11.89-8.11-15.71-9.79c0,0-8-3.45-8-3.45s-16-10.15-16-10.15c-4.75-2.63-14.95-6.89-17.84-11.39-2.03-3.61-1-6.11,0-9.89c2.58-12.48,5.2-12.68,8.01-22c0,0,1.32-8,1.32-8s2.1-6,2.1-6s2.93-16,2.93-16s2.27-8,2.27-8c.85-5.83.89-14.4,6.35-18.26c2.79-1.97,4.82-1.24,7.86-1.06c0,0,16-.68,16-.68s19.42.75,19.42.75s11.58-.75,11.58-.75s13,.6,13,.6s18-6.94,18-6.94s15-5.3,15-5.3s6-3.42,6-3.42c3.61-1.74,6.96-1.53,10-2.62c3.08-1.12,5.23-3.05,7.98-4.69c1.51-.9,3.83-1.75,4.85-3.16c1.47-2.05,1-5.84,1.56-8.47c0,0,2.22-7,2.22-7s.69-16,.69-16c-.39-2.93-1.91-5.26-2.67-8-1.4-5.08.52-13.08-2.32-16.98-2.99-4.12-18.93-9.79-24.31-12.07c0,0-16-6.63-16-6.63-3.88-2.01-6.7-4.79-11-5.97-2.98-.81-11.04-2.25-14-2.03c0,0-36,.68-36,.68s-13.2-.76-13.2-.76c-5.73,0-12.29,1.65-17.27-2.38-4.02-3.27-3.78-9.16-4.86-13.86c0,0-2.2-12-2.2-12s-6.28-25-6.28-25-4.66-11-4.66-11-4.59-14-4.59-14c-1.43-3.34-4.19-8.49-2.24-11.96c2.57-4.57,10.7-8.33,15.3-10.63c0,0,17-7.68,17-7.68s17.96-9.91,17.96-9.91s12-7.12,12-7.12c3.31-2.74,4.36-5.43,6.82-8.53c0,0,13.68-17.17,13.68-17.17s3.08-5,3.08-5c3-4.12,6.78-6.14,8.88-9.09c1.6-2.25,5.53-11.16,5.43-13.91-.18-5.52-3.41-9.64-6.26-14c0,0-4.8-9-4.8-9s-5.47-8-5.47-8c-6.85-11.3-5.48-16.66-17.32-17.49-4.13-.29-8.86.93-13,1.41c0,0-10,0-10,0-8.3.19-7.37,2.02-13,2.87-3.84.58-11.44-.33-17,1.25-10.55,2.98-33.18,18.24-44,24.24c0,0-10,4.67-10,4.67-7.25,4.16-11.63,10.96-18.99,5.82-6.03-4.21-8.45-11.11-15.01-17.77c0,0-19.9-19.42-19.9-19.42s-4.69-4.86-4.69-4.86c-3.16-2.61-3.82-.9-8.69-5.83-4.28-4.32-13.15-11.39-12.57-17.89.4-4.53,4.16-8.53,6.84-12c0,0,11.06-16.28,11.06-16.28s10.16-18.72,10.16-18.72c2.72-4.69,5.73-6.37,7.68-12c1.69-4.84.77-8.25,1.28-13c.52-4.83,1.67-5.88,1.81-12c0,0,0-9,0-9c.58-3.11,2.63-4.96,3.51-8c.7-2.4.48-6.4.51-9c0,0,.96-11.75.96-11.75-.78-2.69-9.35-7.53-11.96-8.88c0,0-20.91-11.34-20.91-11.34s-5.26-3.73-5.26-3.73-12.83-4.39-12.83-4.39c-6.16.18-13.32,8.9-18.17,11.98-11.64,7.39-26.59,17.53-35.46,28.2-8.03,9.68-9.38,17.33-12.64,22.87c0,0-4.93,6.21-4.93,6.21-2.73,3.96-3,7.49-4.79,10.92c0,0-7.89,11.91-7.89,11.91-2.22,3.4-4.51,7.41-9.12,7.26-3.69-.12-10.77-4.14-15-5.34c0,0-11.42-2.16-11.42-2.16s-29.58-8.59-29.58-8.59c-8.65-1.29-20.57.46-26.57-6.47-3.91-4.52-2.42-17.57-2.43-23.7c0,0-.99-14-.99-14s.95-13,.95-13-.87-16-.87-16c-.23-3.42.16-5.46-.69-9-2.04-8.55-3.57-8.67-6.49-15c0,0-2.51-7-2.51-7s-2.87-6-2.87-6-2.73-8-2.73-8-4.84-10-4.84-10c-1.37-3.8-1-7.55-5.05-9.81-2.54-1.42-10.77-1.19-13.91-1.19c0,0-35,0-35,0-2.52,0-6.55-.22-8.69,1.17-2.15,1.41-2.73,4.54-3.63,6.83c0,0-6.89,18-6.89,18s-3.8,7-3.8,7-3.04,9-3.04,9c-2.32,5.53-8.59,18.44-9.61,24c0,0,0,9,0,9s0,7,0,7s0,24,0,24c.06,6.69.77,13.33,0,20-.38,2.63-.24,5.63-1.94,7.82-2.82,3.64-15.74,4.7-20.4,5.5c0,0-27,7.11-27,7.11s-20.42,6.84-20.42,6.84c-7.1,1.15-12.27,7.86-17.65,5.26-5.57-2.7-11.06-17.89-13.61-23.53-1.99-4.38-5.51-6.63-7.91-11c0,0-3.54-8-3.54-8s-5.06-9-5.06-9-3.22-6.95-3.22-6.95c-2.48-4.14-8.72-7.48-12.59-10.5c0,0-7-5.87-7-5.87s-5.74-3.51-5.74-3.51-6.31-6.04-6.31-6.04-8.67-6.49-8.67-6.49c-3.32-2.9-12.03-10.18-16.28-10.39-4.71-.23-12.22,4.95-16,7.56c0,0-7.96,4.38-7.96,4.38s-15.04,9.93-15.04,9.93c-2.97,2.19-8.02,5.38-9.22,8.9-1.04,3.02.42,6,1.06,8.98c0,0,0,11,0,11c.25,7.45,1.39,7.45,2.19,13c0,0,0,9,0,9s1.67,9,1.67,9c.56,3.86.32,10.84,1.61,14c0,0,13.93,21,13.93,21s3.81,7,3.81,7s12.49,20,12.49,20c2.53,4,6.17,8.87,5.11,14-.89,4.28-7.16,7.72-10.48,10.7c0,0-26.04,25.72-26.04,25.72s-16.14,16.75-16.14,16.75c-3.08,4.46-5.64,12.32-13.16,11.81-7.23-.48-14.58-10.51-20.92-13.98-2.6-1.42-5.23-1.03-8.91-3.08c0,0-7-5.22-7-5.22s-17-11.18-17-11.18c-10.12-5.47-11.56-3.31-21-4.73-5.64-.85-4.7-2.68-13-2.89c0,0-12,0-12,0-5.63-.96-4.7-2.79-13-2.9-3.28-.04-10.08-.42-12.79,1.17-3.34,1.97-5.73,8.45-7.73,11.83c0,0-6.13,9-6.13,9s-8.13,17-8.13,17c-1.49,3.26-4.34,8.42-3.83,12c.59,4.09,7.71,12.69,10.37,16.28c0,0,4.09,6.72,4.09,6.72s7.4,9,7.4,9c5.33,7.61,7.59,13.68,15.79,19.79c0,0,9.96,5.42,9.96,5.42s9.09,6.39,9.09,6.39s28.08,15.34,28.08,15.34c5.01,3.29,10.61,3.07,13.66,9.06c3,5.91-3.08,19.2-5.65,25-2.03,4.59-9.13,30.71-9.88,36c0,0-.51,9-.51,9s-2.4,8-2.4,8c-.53,2.49-.15,5.73-1.41,7.85-2.12,3.59-6.39,3.14-9.98,3.15c0,0-37,0-37,0s-11,.58-11,.58c-4.93-.04-8.78-1.24-14,0-7.5,1.28-14.1,5.39-21,8.37c0,0-7,2.76-7,2.76s-6,3.46-6,3.46-6.83,2.29-6.83,2.29-4.04,2.15-4.04,2.15c3.5-1.49-16.77,4.88-13.13,4-1.9.46-4.53.26-5.81,1.96-1.1,1.47-.87,8.12-1.11,10.43c0,0,0,32,0,32-.02,4.15,2.43,14.64,5.35,17.49c3.71,3.64,17.42,7.64,22.57,9.85c0,0,12,6.05,12,6.05s10,3.31,10,3.31c9.42,4.25,8.66,6.28,20,6.3c0,0,16,0,16,0c8.3-.11,7.37-1.94,13-2.79c0,0,19-1.21,19-1.21c4.31-.05,13.48-.73,16.85,1.74c3.39,2.47,3.35,7.4,4.49,11.26c0,0,4.33,18,4.33,18s2.06,15.04,2.06,15.04s9.03,25.96,9.03,25.96s1.94,9,1.94,9c1.07,4.12,4.44,8.72,1.55,12.78-2.07,2.9-5.32,3.26-8.25,4.62c0,0-10.99,6.31-10.99,6.31s-7.18,4.27-7.18,4.27-8.83,4.4-8.83,4.4-9,5.59-9,5.59-13.82,7.56-13.82,7.56c-3.18,1.95-8.64,10.12-10.96,13.51c0,0-13.8,17.98-13.8,17.98s-15.28,19.15-15.28,19.15c-.93,1.83-1.18,3.81-.85,5.83.64,3.94,5,10.52,7.18,14c0,0,8.48,14.99,8.48,14.99s6.34,8.1,6.34,8.1c2.54,3.81,3.12,9.67,8.71,10.85c2.99.63,5.76-1.52,10-2.06c0,0,16,0,16,0c8.2-1.32,1.59-2.85,18-2.88c9.69-.02,5.87-.77,13-2.86c0,0,6-1.06,6-1.06c5.84-1.67,14.76-7.81,20-11.01c4.47-2.74,9.23-3.04,11-8.07ZM599,944c-.54-11.78-3.08-14.44-3.76-18.17c0,0-1.54-15.83-1.54-15.83s-3.25-15-3.25-15-2.26-15-2.26-15c-1.37-6.89-2.62-7.76-3.74-12c0,0-4.25-20-4.25-20s0-7.28,0-7.28-1.99-6.72-1.99-6.72-.65-9-.65-9c-1.35-8.57-2.54-6.73-2.56-17-.03-13.91-2.5-9.39-3.9-17c0,0,0-17,0-17s0-9.27,0-9.27c-.82-6.28-3.08-5.09-3.1-17.73c0,0,0-59,0-59c.03-16.29,3.63-9.51,3.16-31.28-.3-13.61,2.11-9.5,3.54-18.72c0,0,.62-13,.62-13s1.59-7,1.59-7s1.54-10,1.54-10s2.07-7,2.07-7s.95-7,.95-7s1.98-6,1.98-6s.85-7,.85-7c1.14-7.78,2.94-20.08,5.99-27c0,0,3.82-14.34,3.82-14.34.45-2.5-.17-3.43.91-6.7c0,0,3.54-8.96,3.54-8.96s5.13-20,5.13-20s10.14-25,10.14-25c2.16-5.73.52-4.22,4.38-13c4.22-9.62-1.23-3.13,8.57-18.96c2.46-3.97,6.41-6.55,11.01-3.86c2.77,1.61,4.54,6.01,5.99,8.82c4.93,9.57,2.47,7.28,4.83,14c0,0,5.5,12,5.5,12s7.83,22,7.83,22s4.16,11,4.16,11s1.99,9,1.99,9s9.01,30,9.01,30s1.36,8,1.36,8s2.52,8,2.52,8s1.65,9,1.65,9c.99,3.36,2.57,5.15,3.27,9c0,0,0,9,0,9c.23,10.68,3.59,10.56,4.9,18c0,0,2.37,22,2.37,22s1.7,8,1.7,8c1.6,6.73,1.12,13.13,1.13,20c.02,13.41,2.98,8.06,3,22c0,0,0,71,0,71-.02,12.74-2.87,10.65-3,21c0,0-.82,28-.82,28s-2.77,16-2.77,16-3.15,13-3.15,13c-.93,5.67.45,6.35-1.99,18c0,0-3.9,13-3.9,13s-2.58,20-2.58,20-1.38,6-1.38,6-.5,6-.5,6c-.66,2.84-2.49,4.94-3.44,10c0,0-.65,9-.65,9s-2.44,9-2.44,9-.99,11-.99,11c-1.26,7.16-3.82,14.73-2.39,22c4.45-6.3,4.29-14.61,5.29-22c0,0,2.49-10,2.49-10s4.1-22,4.1-22s7.92-37,7.92-37s1.49-10,1.49-10s2.39-9,2.39-9s2.2-11,2.2-11s0-5,0-5s2.34-6,2.34-6c3.27-10.36,5.4-21.07,9.97-31c0,0,4.98-9,4.98-9c5.46-11.7,12.22-25.96,20.42-35.91c2.81-3.41,13.55-13.25,17.41-15.46c12.97-7.42,36.82-9.79,49.96-1.71c7.55,4.64,15.28,16.41,17.37,24.99c0,0,.84,7.13.84,7.13c1.12,5.57,2.7,4.53,2.83,11.96c0,0,0,12,0,12-.02,12.2-6.85,25.49-12.69,36c0,0-13.62,21-13.62,21s-3.38,6-3.38,6-5.43,7-5.43,7c-7.72,10.89-13.82,20.63-18.87,33c0,0-7.71,21-7.71,21-1.24,5.07-.77,27.82.7,33c2.94-12.86,5.86-12.27,9.79-19c1.44-2.47,2.66-6.98,6.3-6.55c2.49.29,4.15,2.39,5.02,4.57c0,0,3.89,20.98,3.89,20.98.04,3.73.23,12.79-.53,16-1.27,5.34-9.42,18.08-13.64,21.51-1.9,1.53-5.49,3.18-7.83,3.93-4.01,1.29-12.32.59-17,.56-15.86-.1-15.52-10.79-17.09-23-.62-4.82-2.26-5.77-2.81-10c0,0,0-19,0-19-.18-7.06-.91-8.06,0-16c.69-5.04,2.02-5.8,2.64-9.09c0,0,.63-6.91.63-6.91c1.31-6.93,6.17-22.44,8.95-29c0,0,4.42-8,4.42-8c1.91-4.13,1.13-5.44,4.69-12c0,0,7.83-17,7.83-17c3.67-6.83,11.2-15.76,7.64-23.98-4.01-9.27-16.69-3-20.87,3.03c0,0-10.73,16.95-10.73,16.95s-2.58,7-2.58,7c-1.33,2.67-2.56,3.84-3.72,7c0,0-2.51,10-2.51,10s-5.12,14-5.12,14-1.01,9-1.01,9-2.01,6-2.01,6c-1.97,7.74-5.58,33.24-5.64,41.04c0,0,0,8.96,0,8.96s2.53,23,2.53,23c2.08,8.88,5.48,14.08,6.27,17c.96,3.57-.08,6.44,1.42,12c0,0,6.16,18,6.16,18s4.55,8,4.55,8s3.72,11,3.72,11s18.85,32.42,18.85,32.42s3.6,7.58,3.6,7.58s11.75,18.01,11.75,18.01c2.22,9.1-13.35,11.07-19.56,10.99-9.65-.13-5.26-2.8-20-3-6.46-.09-6.34-.89-12-3.26-5.06-2.11-7.74-3.09-11.98-6.92-15.06-13.6-8.77-35.8-2.02-51.82c0,0-9-2.83-9-2.83-8.82-2.48-15.91-1.55-24,2.33-2.13,1.02-7.03,2.39-7.81,4.72-.86,2.6,3.15,6.69,4.59,8.78c2.89,4.18,12.02,18.76,13.5,23c.75,2.13,2.59,18.44,2.53,21c0,0-.73,8-.73,8-.36,6.4-.2,13.01-2.89,19-4.2,9.37-9.2,12.54-13.48,19.04-8.26,12.53-7.23,9.64-18.71,17.67-3.37,2.35-7.75,5.72-12,5.91-6.57.29-9.86-3.49-14.28-7.24c0,0-8.59-5.65-8.59-5.65-2.51-2.29-4.29-5.92-6.38-8.73-5.05-6.79-13.47-18.06-16.06-26-1.27-3.9-2.82-19.42-2.65-24c.11-3.06,1.19-13.49,2.22-16c7.68-18.64,6.03-11.48,14.15-26c1.31-2.34,5.21-6.42,4.82-8.86-.48-2.98-6.72-3.98-9.23-5.01c0,0-6-2.5-6-2.5-3.32-.93-13.67-.92-17,0c0,0-9,3.37-9,3.37c1.96,5.18,6.68,15.75,7.2,21c1.52,15.34-4.65,32.39-20.2,38.04-10.67,3.88-15.33,2.07-21.42,2.91-4.58.63-5.76,3.47-14.58,3.01c0,0-18-3.96-18-3.96-1.02-8.49,2.19-7.72,6.28-14c0,0,6.35-11,6.35-11s6.28-9.17,6.28-9.17s3.65-7.83,3.65-7.83s7.67-11,7.67-11s10.76-20.91,10.76-20.91s5.08-17.13,5.08-17.13s3.54-7.96,3.54-7.96s2.74-13,2.74-13s2.27-7,2.27-7s1.01-6,1.01-6s1.98-6,1.98-6s1.32-12,1.32-12c2.36-12.52,3.19-5.52,2.56-21-.31-7.48-3.42-6.74-3.49-17-.09-15.18-.79-8.1-2.68-19-1.26-7.32-1.9-14.98-4.25-22c0,0-4.87-17-4.87-17s-4.59-8.17-4.59-8.17-2.8-9.66-2.8-9.66c-1.83-4.37-4.6-8.19-7.09-12.17-4.94-7.88-5.56-10.15-15.72-11.15-1.49-.06-4.44-.52-5.78,0-3.04.92-5.18,7.25-4.51,10.15c0,0,13.41,29,13.41,29s8.28,18,8.28,18s5.41,10,5.41,10s4.81,19,4.81,19c2.92,9.71,5.36,13.09,5.38,24c0,0,0,10,0,10s.66,9,.66,9-.66,15-.66,15c-.09,6.36-1.1,7.14-2.62,13-3.42,13.14-5.34,22.25-21.38,22-2.97-.05-16.27-3.17-18.58-4.57-9.1-5.5-16.07-20.92-16.08-31.43-.01-5.88,1.66-11.3,2.45-17c.43-3.06-.16-8.54.81-10.94c1.21-3.02,4.21-4.48,7.29-3.3c2.88,1.09,3.83,3.84,5.31,6.24c2.58,4.19,6.08,10,9.69,13c0,0,0-25,0-25s-4.7-17-4.7-17-8.45-19-8.45-19-19.17-29.28-19.17-29.28-3.7-6.62-3.7-6.62-4.28-4.69-4.28-4.69-7.74-10.41-7.74-10.41c-2.17-3.31-2.86-6.46-4.47-10-4.19-9.25-9.25-19.63-9.24-30c0,0,0-15,0-15s2.12-7,2.12-7s0-6,0-6c.35-5.74,3.85-13.45,7.29-18c1.48-1.95,8.6-9.11,10.54-10.43c2.42-1.65,4.3-1.7,6.87-2.69c0,0,5.32-2.64,5.32-2.64c2.47-.5,12.56-.27,15.72,0c6.83-.15,7.88.76,14,3.11c16.58,6.36,26.39,15.38,35.42,30.65c5.48,9.27,15.57,31.62,19.3,42c0,0,3.38,12,3.38,12s5.86,16,5.86,16s5.38,22,5.38,22s4.99,18,4.99,18s.97,8,.97,8s2.29,12,2.29,12s7.19,40,7.19,40c1.13,5.46.03,10.88,5.22,14ZM301,679c-3.49-13.87,1.21-15.18,4.1-27c.96-3.9.59-9.71,5.01-11.39c8.5-3.23,7.44,7.9,12.95,11.12c5.63,3.29,15.72,4.94,21.94,6.78c0,0,23,8.21,23,8.21c4.26,1.35,10.64,5.14,14.71,2.81c10.1-5.78-1.62-14.03-5.13-19.53c0,0-7.04-9-7.04-9s-3.08-4.99-3.08-4.99-4.73-5.43-4.73-5.43-3.91-6.16-3.91-6.16-12.2-16.42-12.2-16.42c-3.09-4.4-12.82-15.95-1.6-16.96c0,0,4.98,0,4.98,0c12.18.26,17.1,3.55,28,6.75c0,0,9,1.84,9,1.84s9,3.47,9,3.47c4.15,1.29,5.31.58,10,2.53c6.88,2.85,19.15,6.58,24.63-.74.95-1.27,1.4-2.29,1.07-3.89-.42-2.04-8.91-12.83-10.81-15.01c0,0-10.47-13.85-10.47-13.85s-7.92-8.18-7.92-8.18c-3.71-5-2.07-6.39-9.78-11.71-5.45-3.77-9.29-1.16-12.49-3.27-2.8-1.97-1.7-5.47,0-7.87c2.83-4.33,6.72-4.31,11.6-8.47c0,0,6.21-5.8,6.21-5.8s7.92-5.38,7.92-5.38c3.28-2.5,4.95-5.19,9.05-6.61c3.52-1.22,13.82-.92,17.99-.85c5.21.1,8.11,1.24,11.78,5.17c2.84,3.06,7.34,13.58,7.92,17.83.54,4.06-2.02,8.48,1.56,11.48c3.84,3.22,13.91,6.09,18.74,7.84c0,0,10,4.06,10,4.06c4.01.9,6.14-1.4,5.3-5.38-1.3-6.13-8.22-14.71-11.24-20c0,0-7.08-14-7.08-14s-2.14-6-2.14-6-7.3-10.98-7.3-10.98c-1.29-1.95-2.38-3.51-4.63-4.42-2.58-1.05-8.04.01-8.47-3.82-.36-3.24,3.19-5.82,5.56-7.31c0,0,8-4.27,8-4.27c3.79-2.37,6.66-5.57,11-7.48c2.48-.97,6.36-1.95,8.68,0c4.16,3.26-.37,6.82-.83,10.28-.25,1.92.53,3.34,1.34,5c0,0,5.78,10,5.78,10s4.72,11,4.72,11s10.22,16,10.22,16s6.74,12.55,6.74,12.55c1.23,1.23,2.57,1.8,4.31,1.37c5.38-1.34,5.03-8.68,5.04-12.92c0,0,0-66,0-66c.01-4.8-.28-10.21,6-10.81c1.57-.15,3.33.18,4.7.98c2.67,1.58,10.46,14.23,13.04,17.66c0,0,20.16,27.17,20.16,27.17s3.77,5.83,3.77,5.83s6.89,8.17,6.89,8.17c1.67,2.33,3.33,5.52,5.65,7.15c2.93,2.06,9.16,2.02,9.16,6.87c0,8.76-16.56,8.22-21.37,9.78-3.33,1.08-8.46,3.84-12,3.45-1.4-.16-2.65-.69-3.67-1.69-4.55-4.51,2.91-7.31.72-12.56-.47-1.14-1.95-2.95-2.81-3.85-4.29-4.49-6.33-2.58-11.24-.74c0,0-8,2.59-8,2.59s1,11,1,11c4.7.77,12.46,3.53,8.13,9.78-2.71,3.91-5.52,1.71-12.13,6.69-10.38,7.81-6.03,3.76-14,8.51c0,0-9,5.86-9,5.86s-13,6.78-13,6.78c-5.27,3.01-7.87,6.92-12,8.49-9.44,3.6-19.08-3.45-27-7.4c0,0-15-5.71-15-5.71s18.09,15.02,18.09,15.02c3.33,1.67,8.59.63,9.55,5.11c1.03,4.77-4.56,10.17-7.81,12.99-13.41,11.6-19.12,12.32-28.88,29.88-2.26,4.08-6.48,12.91-11.91,13.06-7.84.22-3.31-10.39-12.04-13.41-1.77-.7-3.1-.94-4.79,0-1.83,1.17-6.83,8.26-7.37,10.35-.48,1.86-.09,3.35.91,4.96c1.33,2.11,3.73,4.06,6.25,4.4c2.75.38,9.62-3.18,9.64,3.66.03,7.14-6.35,12.61-10.26,17.57-2.99,3.8-8.52,17.84-9.02,22.41-.2,1.9.23,3.21.64,5-9.58,7.92-5.57,7.92-8.65,17c0,0-5.05,13-5.05,13-1.07,3.76-1.04,8.94-3.04,11.96C367.6,748,358.51,745.83,361,735c0,0-22-8.43-22-8.43s-12-2.83-12-2.83-8-3.97-8-3.97-16.83-5.61-16.83-5.61c-5.78-1.2-7.33,3.82-12.11,2.55-5.09-1.35-4.08-6.89-3.04-10.71c1.48-5.43,6.04-22,9.67-25.4c1.46-1.36,2.52-1.29,4.31-1.6ZM530,497c-.99,2.5-1.11,4.29-.96,7c.14,2.43.54,5.24,3.18,6.21c3,1.09,6.82-1.36,5.46-5.21-.48-1.37-1.8-2.91-2.79-3.96-1.49-1.59-3.13-2.78-4.89-4.04Zm328,54c-9.9,5.1-7.63,6.77-13.6,13.72c0,0-8.4,8.28-8.4,8.28-2.73,2.73-7.57,7.14-8.32,11-.63,3.23,1.84,7.65-.57,10.34-2.03,2.38-5.8,1.35-8.02,0-2.25-1.49-12.05-11.15-13.58-13.34-1.41-2.02-2.92-5.2-1.45-7.57c2.54-4.1,8.76-.97,11.94-1.98c3.12-.98,6.99-6.02,9.75-8.36c0,0,7.83-5.35,7.83-5.35s20.46-20.74,20.46-20.74s8.44-8.28,8.44-8.28c2.8-4.05-1.96-12.86,2.95-15.13c6.51-3.02,12.31,9.44,15.16,13.41c2.17,3.02,6.42,7.26,6.78,11c.32,3.27-4.26,11.9-5.96,15c0,0-14.41,29-14.41,29c5.15-.81,4.77-1.79,9-3.51c0,0,7-2.37,7-2.37s15-8.09,15-8.09c3.81-2.05,12.79-6.32,16.99-5.05c3.3,1,9.17,7.32,11.72,9.93c3.27,3.34,8.45,7.55,5.95,12.96-2.97,6.4-7.14-.35-13.66,4.29-6.47,4.59-8.47,8.18-13.45,13.33c0,0-7.72,7.34-7.72,7.34-4.09,3.84-5.32,3.53-8.74,5.97-4.25,3.03-12.89,11.7-12.97,17.2-.04,2.59,1.78,5.65,2.88,8c0,0,15.99-8.04,15.99-8.04s16.01-8.99,16.01-8.99c7.79-3.89,12.08-4.85,19.98-9.82c8.42-5.3,4.06-14.7,13.26-13.58c6.49.78,7.2,10.65,9.39,15.43c0,0,11.72,18,11.72,18s5.43,11,5.43,11c3.05,6.44,6.36,10.03-.8,15.36-2.64,1.97-5.96,3.18-8.98,4.45c0,0-6,2.72-6,2.72-5.38,2.25-10.6.48-8.39-5.53c2.02-5.47,12.16-12.85,6.67-22.99-.75-1.38-1.98-3.28-3.49-3.92-2.27-.96-4.82.72-6.79,1.74c0,0-16,8.17-16,8.17c2.43,1.56,5.02,3.48,8,3.65c3.73.22,9.99-3.88,12.55.66c1.84,3.26-.26,6.32-2.99,8.13c0,0-13.56,6.48-13.56,6.48-5.73,3.47-3.11,4.06-15,9.85-3,1.7-7.6,3.34-9.97,0-4.01-6.18,4.98-10.68,7.86-14.1c2.48-2.93,2.77-5.01,3.11-8.67-4.49,1.39-4.45,2.72-8.04,4.55-2.63,1.34-18.11,4.48-14.89,14.41c1.85,5.69,11.36,9.86,16.93,10.02c4.48.14,10.42-.93,12.77,4.06c1.71,3.62-1.47,6.38-4.43,7.89-3.52,1.79-12.19,3.04-16.34,4.07-2.5.62-6.23,1.85-8.67.66-5.11-2.49-6.83-13.05-9.31-17.66c0,0-7.53-10.17-7.53-10.17-6.44-11.88-8.04-22.88-18.51-32.92-3.86-3.71-14.53-13.01-13.44-18.8c1.2-6.43,7.63-1.52,12.46-4.49c4.25-2.62,19.89-16.82,22.35-20.62c1.36-2.11,1.3-2.67,1.65-5-4.48,2.93-9.06,5.72-14,7.83c0,0-8,3.13-8,3.13s-14,8.25-14,8.25c-3.32,1.63-10.92,5.93-13.49,1.48-3.43-5.95,1.96-11.62,4.28-16.69c0,0,2.31-7,2.31-7c1.02-2.91,4.07-9.29,5.65-12c0,0,7.77-13.54,7.77-13.54c2.64-3.82,3.75-3.49,5.48-8.46ZM416.06,530.7c-8.31,4.72.88,10.98,6.36,18.3c1.42,1.89,4.43,6.44,7.28,5.55c3.14-.98,2.2-7.24,1.5-9.55-1.99-6.63-7.59-14.73-15.14-14.3ZM381,631c5.42-7.72.01-8.66-7-9c1.22,4.97,2.83,6.19,7,9Zm-77,47c.11,11.94,3.96,14.57,15,17.26c2.21.54,7.48,1.86,9.44.63.79-.49,8.08-12.32,5.72-14.99-1.52-1.71-14.07-4.6-17.16-5.58-5.79-1.83-7.67,1-13,2.68Zm46.05,10.72c-1.55.53-1.94.25-3.2,1.72-2.11,2.48-4.15,10.37-1.49,12.84c3.21,2.99,17.15,6.15,21.64,5.56c4.58-.6,8.59-5.05,7.53-9.8-.8-3.56-3.51-4.42-6.53-5.54-5.91-2.18-11.56-4.78-17.95-4.78ZM916,756c-5.18-1.53-6.55-3.47-9.27-8-6.21-10.38-4.92-14.23-4.73-26c.11-6.13,1.09-6.92,4.26-12c4.93-7.9,11.58-15.25,20.74-18.19c0,0,6-1.28,6-1.28c5.84-1.54,5.14-2.44,12-2.53c9.06-.12,27.58-1.28,34.83,3.88c8.11,5.76,17.28,18.86,17.8,29.12.22,4.46-1.82,8.11-1.37,10.96.5,3.18,3.13,4.44,3.9,7.11c1.1,3.83-2.16,5.67-5.18,6.84-4.58,1.76-18.11,5.42-22.96,5.73-5.29.34-6.87-4.34-4.13-8.36c5.73-8.38,25.49-17.97,11.92-30.22-2.21-2-3.07-2.27-5.81-3.14c0,0-7-2.05-7-2.05s-14,2.62-14,2.62-6,2.44-6,2.44-7,.94-7,.94c-3.94.91-12.63,5.57-15.58,8.34-2.98,2.8-8.74,8.07-8.26,12.51.63,5.87,7.36,11.46,11.84,14.54c3.15,2.16,7.71,4.29,7.71,8.74c0,8.55-9.33,4.36-13.71,3c4.6,8.07,11.09,6.59,19,8.59c6.29,1.59,8.98,3.73,12,4.72c0,0,11,2.21,11,2.21s20,7.59,20,7.59c4.82,1.51,18.51,4.08,20.38,9.02c1.77,4.66-4.82,9.73-8.55,11.17c0,0-8.83,2.28-8.83,2.28s-15,4.22-15,4.22-8,4.13-8,4.13-10,2.39-10,2.39-14,6.23-14,6.23c-4.16,1.68-15.11,5.32-16.45,10.06-1.35,4.77,12.95,8.99,16.45,9.9c0,0,8,.98,8,.98s15,5.05,15,5.05s14,1.76,14,1.76s6,1.58,6,1.58c4.94.74,10.63-3.82,14.75-2.1c3.23,1.35,3.36,6.25,3.19,9.22-.2,3.6-3.6,14-6.33,16.28-1.73,1.44-4.48,2.07-6.61,2.79c0,0-18,6.29-18,6.29-8.74,3.05-15.11,7.41-25,7.64c4.92,4.26,11.09,2.59,17,4.54c3.5,1.16,6.63,3.97,10.58,3.47c5.08-.65,10.18-11.09,15.52-4.44c4.23,5.29.04,12.21-1.29,17.43-.97,3.81-.62,9.71-6.78,9.71-4.94,0-5.87-5.81-8.02-8.4-1.71-2.07-3.6-2.37-6.01-3.19c0,0-19-4.64-19-4.64s-7-2.8-7-2.8-7-1.64-7-1.64-6-2.41-6-2.41c-7.27-2.06-11.84.43-19-4.63-3.02,12.61,7.42,12.17,16,15.78c0,0,11,4.43,11,4.43c11.24,5.83,10.79,7.56,24,11.27c0,0,5,1.57,5,1.57c2.94.32,4.92-1.41,8-1.81c2.98-.39,7.03.25,7.5,3.87.42,3.23-2.56,7.14-3.96,9.89-2.91,5.71-5.22,20.57-11.75,23.77-2.82,1.38-5.25-.36-6.62-2.83-1.53-2.75-.81-5.98-2.91-8.52-1.72-2.1-4.72-2.78-7.09-3.92c0,0-16.17-7.24-16.17-7.24s-22-8.65-22-8.65c-2.49-1.15-9.46-5.04-11.72-5.25-4.26-.4-7.62,6.81-13.05,3.61-2.53-1.49-3.12-4.26-2.66-6.97.6-3.56,2.94-6.81,4.45-10c0,0,4.5-11,4.5-11c1.73-3.05,4.27-5.72,5.45-9c1.81-4.98-.29-8.87,4.18-11.61c5.19-3.19,9.73-2.75,13.85-4.2c0,0,8-3.57,8-3.57s9-2.18,9-2.18s12-5,12-5c2.78-.87,13.77-4.53,15.41-6.16c1.18-1.17,1.13-1.88,1.59-3.28c0,0-10-1.49-10-1.49s-7-2.33-7-2.33-12.09-1.47-12.09-1.47-6.47-1.53-6.47-1.53c-4.4.01-6.69,7.2-13.29,5.49-3.74-.97-3.24-5.63-3.13-8.67.21-5.89,1.54-5.64,2.57-10c0,0,.88-5.72.88-5.72s2.32-5.32,2.32-5.32s0-21.96,0-21.96c.22-3.61-.1-12.32,6.11-10.35c3.31,1.05,3.33,4.6,5.52,5.51c3,1.24,8.83-2.46,9.98-5.27.67-1.62.66-5.09.58-6.89-.07-1.64-.1-3.17-1-4.63-1.44-2.32-7.23-6.26-10.04-4.91-2.68,1.28-3.77,6.87-7.81,5.8-5-1.32-2.15-10.48-3.62-16.26-.57-2.21-2.16-4.63-1.69-6.91.38-1.85,2.95-4.52,4.18-6.09Zm-594-3c0,0-28,1.31-28,1.31-5.3,1.33-6.98,6.95-11.91,5.08-4.78-1.82-4.11-8.26-4.09-12.39.02-4.79.74-13.11,7-13.95c3.71-.5,6.28,4.08,10,5.93c2.76,1.37,6.92,1,10,1.02c14.13.14,8.26,3.93,21,4c16.4.08,15.43-.83,32,2.49c9.15,1.83,14.1-3.79,16,7.51-11.72,8.24-7.91,4.24-17,9.6c0,0-13,8.51-13,8.51s-8,3.28-8,3.28c-9.68,5.5-13.97,11.15-26,13.61c0,0,0,2,0,2c10.36,3.22,15.25.98,26,1c0,0,14.95,2.03,14.95,2.03c4.48-.82,6.21-9.85,12.94-7.27c2.32.88,3.54,2.82,3.56,5.26.02,2.54-1.87,6.01-2.38,8.7-1.1,5.69,1.58,5.65-2.07,14.28c6.18,3.71,3.09,9,4.39,15c0,0,3.22,9,3.22,9s.68,7,.68,7s2.16,11,2.16,11c.66,6.1-.38,3.52,1.18,12c1.01,5.53.17,9.84-6.58,8.85-5.29-.78-3.8-5.14-9.09-5.62-4.99-.44-10.32,2.8-14.96,3.29-3.83.61-6.13-.86-10,0-4.04.65-5.8,2.87-11,3.38-5.94.58-14.01.4-19,4.1-9.55.96-4.47,9.14-12.02,9.33-1.57.04-3.46-.54-4.75-1.42-4.33-2.94-2.82-8.49-3.55-12.91c0,0-2.16-8-2.16-8s-.82-10-.82-10c-1.58-10.22-2.47-1.26-2.7-19-.05-3.17-2.06-10.6-.78-12.43c1.43-2.04,5.56-1.48,7.78-1.61c7.23-.45,6.14-3.35,16-2.94c4.67.19,8.02,2.96,4.4,7.39-3.88,4.75-12.66,5.84-13.4,17.59-.21,3.33-.01,5.82,3.12,7.49c3.91,2.51,10.85,1.37,14.87,0c1.84-.92,4.77-2.1,4.39-4.58-1.15-7.41-12.85-2.37-14.01-8.04-1.15-5.65,5.48-3.94,8.63-4.7c0,0,8-2.86,8-2.86s10-1.44,10-1.44c3.38-.8,5.36-2.36,9-2.24c1.06.03,2.95.36,3.94.72c1.9.68,3.3,1.62,3.64,3.76c1.02,6.5-7.62,7.47-9.84,11.05-2.52,4.1,3.82,4.47,6.26,4.23c0,0,9-2.07,9-2.07c3.41-.58,6.97-.17,9.65-2.89c5.97-6.07-5.15-17.21-10.65-19.9-4.86-2.37-10.53-1.52-12.82-4.95-4.41-6.62,5.24-6.57,8.82-6.58c2.19,0,6.86.28,8.53-1.02c2.19-1.61,1.24-4.13,0-5.92-2.92-3.94-6.12-4.03-10.53-4.15c0,0-16,0-16,0-4.36-.57-6.32-1.91-9-2.47c0,0-9,0-9,0-4.58-.14-12.66-1.05-17,0-4.48.75-6.73,4-9.96,3.83-2.47-.13-3.99-2.09-4.61-4.31-.69-2.49,0-5.4,0-7.96c0-3.78-1.35-10.49.59-13.79c2.81-4.77,9.46-5.28,13.98-7.29c0,0,12-7.78,12-7.78c6.42-3.81,14.24-6.2,19-12.14Zm686.21,22.23c5.49-.59,8.59,3.6,12.79,6.56c5.19,3.66,10.84,3.85,12.83,6.69c1.05,1.51,1.13,3.74,1.14,5.52.05,10.12-5.47,10.97-12.97,15.35c0,0-7,4.52-7,4.52-3.72,2.05-8.21,3.04-10.1-1.93-2.63-6.91,7.3-11.48,7.09-15.89-.13-2.78-3.59-4.02-5.56-6.31-3.9-4.51-2.75-11.03,1.78-14.51ZM964,789c0,0-15-3-15-3s0,8,0,8s15-3,15-3s0-2,0-2ZM368,884.83c9.03-.19,13.15,6.56,17.5,13.17c2.09,3.18,3.33,4.22,4.98,8c0,0,2.52,8,2.52,8c1.87,4.65,5.02,6.67,3.44,13c0,0-7.14,18.91-7.14,18.91-1.53,2.15-5.21,5.18-7.3,7.04-3,2.67-9.71,8.53-13,10.29-2.78,1.47-5.06,1.68-8,2.5-9.87,2.76-15.2,5.05-26,4.17-10.17-.84-25.14-13.32-29.55-21.91-1.66-3.23-4.07-12.22-5.12-16-1.06-5.8-6.49-11.56,0-16.3c2.68-2.2,7.99-2.94,11.67-4.6c2.57-1.16,6.69-4.08,9-4.49c2.35-.41,4.74.49,5.96,2.62c1.85,3.19-.35,7.21-2.35,9.76-3.36,4.28-11.92,11.81-10.91,18.01.23,1.45,1.46,3.46,2.13,4.83c4.19,8.53,4.94,6,13.17,6.25c6.19.19,14.31-.25,19.91-3.17c0,0,7.13-4.65,7.13-4.65c6.19-3.4,12.43-6.9,17.94-11.38c5.13-4.16,7.45-7.06,6.7-13.88-.36-3.32-1.48-7.29-5.69-6.81-3.29.38-11.46,5.02-13.39,7.86-2.42,3.56-1.39,11.86-8.6,10.16-3.92-.92-8.11-7.56-9.26-11.21-.78-2.48-.36-3.84-1.65-7c0,0-5.27-10-5.27-10-.95-2.81-.71-5.51,1.49-7.55c4.27-4.33,8.1.08,12.69,0c5.45.19,12-3.99,17-5.62Zm524,53.6c8.46-1.04,7.64-.01,15,2.29c13.83,4.3,26.04,14.06,33.98,26.28c3.57,5.48,6.84,11.35,7.01,18c.21,9-4.87,19.69-10.97,26.24-3.73,4.02-6.08,4.6-7.44,6.25-2.39,2.91-.9,6.37-3.32,8.77-1.61,1.61-4.19,1.78-6.26,1.14c0,0-16.94-9.79-16.94-9.79-1.97-1.68-4.41-4.52-3.4-7.48c2.01-5.5,10.78-.81,14.34,0c7.98,1.35,23.16-7.93,21.32-17.13-.83-4.13-8.17-9.87-11.32-13-8.24-8.18-15.64-12.34-25.83-17.51-3.2-1.62-5.59-4.01-9.17-4.99-12.4-3.41-20.5,7.07-20.96,18.5-.18,4.54.48,6.03.79,10c.29,3.84-1.64,9.51-6.25,5.26-1.37-1.27-3.74-9.1-4.37-11.26-3.7-12.59-.73-17.98,6.73-27.51c3.01-3.85,3.3-5.96,8.08-8.69c2.93-1.68,15.22-4.75,18.98-5.37ZM599,948c0,0-1,0-1,0s1,1,1,1s0-1,0-1ZM377,991c-5.9,6.12-12.97,6.39-18.95,15.92-2.49,3.97.64,12.65-5.18,14.37-2.86.85-5.72-1.4-7.48-3.4c0,0-4.34-6.8-4.34-6.8-2.54-3.79-7.74-9.56-4.03-14.62c2.87-3.92,7.18,1.13,13.94-2.7c3.09-1.75,5.03-4.68,8.08-6.99c0,0,8.92-5.53,8.92-5.53s8.08-7.28,8.08-7.28s7.95-5.26,7.95-5.26s6.29-5.96,6.29-5.96s15.01-11.77,15.01-11.77c2.65-1.38,7.89-1.34,9.67,1.45c2.46,3.86-3.34,14.7-4.84,18.57c0,0-4.65,14-4.65,14s-1.26,9-1.26,9-3.67,9-3.67,9-4.54,17-4.54,17c7.13-2.91,6.33-4.7,11.73-9.04c0,0,6-3.8,6-3.8s12.38-11.37,12.38-11.37c3.84-5.39-2.16-14.63,5.91-14.42c7.01.19,14.36,12.05,19.02,16.54c4.21,4.05,9.35,6.89,13.96,10.42c0,0,20.04,16.22,20.04,16.22c2.87,2.15,13.62,9.65,15.21,11.82c2.12,2.91,1.41,8.7-2.39,9.76-1.75.73-3.19.04-4.86,0-7.99-1.14-8.29,6.38-11.97,11.14c0,0-5.33,6.01-5.33,6.01s-2.57,4.56-2.57,4.56-6.05,8-6.05,8c-3.75,4.58-11.95,14.07-14.38,19.16-2.18,4.58,2.73,13.02-2.18,15.7-4.47,2.43-13.9-6.76-17.56-9.13c0,0-26.67-19.74-26.67-19.74-2.69-2.47-6.57-6.09-7.02-9.83-.55-4.56,2.99-8.4,5.3-12c2.09-3.28,4.54-8.06,8.44-9.38c2.63-.9,6.25-.02,7.4,2.72c1.66,3.94-3.15,11.18-2.54,15.66.46,3.4,6.69,13,10.57,12.66c3.09-.27,7.95-6.13,9.49-8.66c0,0,7.07-11,7.07-11-7.69-.95-6.75.89-13,3.97-2.07.74-5.41,1.94-7.4,0-2.94-2.38.49-7.34,1.83-9.93c2.95-5.73,4.36-5.32,7.78-10.04c2.98-4.11,6.36-11.02,10.3-14.42c3.06-2.63,8.08-2.38,9.71,1.64c2.44,5.97-3.81,9.68-2.22,17.78c3.89-1.93,5.23-3.69,7.98-7c2.42-2.9,2.88-3.7,4.61-7c.99-1.91,2.74-4.8,2.42-7-.78-5.32-8.21-8.85-13.01-8.52-7.49.51-9.12,3.36-15,5.43-2.57.91-4.45.83-6.43-1.23-7.75-8.05,7.37-11.62,8.03-18.59.4-4.23-6.06-3.52-7.6,1.91-1.65.56-2.45.73-4,1.72c0,0-16,12.46-16,12.46s-7.42,7.29-7.42,7.29c-5.51,4.89-7.07,2.87-13.56,10.55-6.2,7.33-2.66,17.49-12.02,15.51-5.45-1.16-8.81-7.16-11.49-11.49-1.6-2.58-4.03-4.99-4.32-8.08-.38-3.89,3.56-12.04,5.05-15.96c3.52-9.23,3.39-11.17,5.44-20c.95-4.08,2.14-5.51,2.32-10Zm472-11.21c10.06-.97,3.18,7.55,7.83,17.21c0,0,3.81,7,3.81,7s2.71,8,2.71,8s3.93,8,3.93,8s2.57,8,2.57,8s5.88,10,5.88,10s5.05,13,5.05,13s3.54,8,3.54,8c1.63,3.44,7.07,10.66,1.42,13.26-5.42,2.49-11.26-4.2-16.74-6.86c0,0-7-3.12-7-3.12s-6-4.35-6-4.35-6-2.48-6-2.48-12.99-6.77-12.99-6.77-7.18-4.92-7.18-4.92c-3.97-2.33-3.65-.72-11.83-6.3-7.24-4.94-7.04-3.74-13.94-6.85-2.15-.96-3.82-1.99-3.61-4.66.53-7.01,11.72-12.95,16.55-17.01c2.27-1.91,5.45-5.2,8.77-4.1c4.58,1.53,1.63,7.17,2.41,9.84.62,2.11,3.91,4.65,5.75,5.74c1.1.65,2.14,1.3,3.49.99c3.52-.8,11.77-10.61,11.3-14.41-1.06-8.58-8.87-5.89-11.16-7.79-7.46-6.17,6.59-16.96,11.44-19.42ZM861,1037c1.18-5.8.34-13.86-6-16-4.28,8.52-2.59,11.38,6,16ZM315.23,1232.74c7.79-1.84,10.05,2.92,14.95,7.69c0,0,22.41,22.49,22.41,22.49c3.38,3.72,8.72,8.89,5.84,14.65-1.25,2.48-4.16,2.35-6.43,1.58-4.71-1.59-7.48-5.89-13.96-2.01-6.31,3.77-10.24,10.17-15.24,15.28c0,0-7.97,8.21-7.97,8.21s-12.57,10.82-12.57,10.82-7.87,8.75-7.87,8.75c-3.56,3.51-15.1,13.65-16.48,17.84-1.47,4.46,2.75,6.72,3.62,10.96c1.52,7.44-6.07,9.48-11.36,5.99c0,0-10.17-9.99-10.17-9.99s-17.09-17-17.09-17c-2.42-2.58-8.25-7.71-8.95-11-.77-3.6,3.3-8.97,7.04-8.98c4.35-.01,6.18,6.12,10.97,4.44c2.96-1.04,12-11.5,15.03-14.29c0,0,14-14.13,14-14.13s29.94-30.04,29.94-30.04c2.22-2.44,4.05-4.48,3.78-8-.41-5.33-5.6-8.86.51-13.26ZM1005,1360c.1-10.34,3.72-10.39,2.68-13.98-1.28-4.41-11.27-9.41-15.68-8.5-2.66.55-5.8,2.94-7.83,4.69-3.9,3.39-12.33,11.4-12.36,16.79-.01,1.99,1.09,4.26,1.96,6.01.94,1.88,2.32,4.86,4.44,5.58c2.63.9,15.28-5.36,16.35,2.47.59,4.33-7.32,13.45-10.65,15.83c0,0-7.63,4.6-7.63,4.6-2.75,2.27-5.9,7.24-10.15,5.85-6.82-2.21-1.51-12.47-1.44-15.34.05-2.13-2.62-9.79-3.57-12c0,0-4.72-9-4.72-9s-2.23-8-2.23-8-3.5-9-3.5-9-1.91-7-1.91-7-10.4-29-10.4-29-2.52-6-2.52-6-1.46-6-1.46-6c-1.9-6.16-10.37-20.5-6.21-26.57c1.68-2.44,5.21-2.64,7.83-1.92c0,0,20,10.02,20,10.02s9,4.96,9,4.96s17,7.46,17,7.46s7,3.96,7,3.96s15,6.26,15,6.26s15,8.33,15,8.33s11,5.72,11,5.72c2.34,1.34,5.29,3.35,8,3.6c3.66.33,9.1-3.62,13.13,2.39c4.5,6.71-4.81,11.22-8.76,14.43c0,0-10.54,11.06-10.54,11.06-3.89,3.62-6.19,3.97-9.83,6.71-7.61,5.71-6.94,7.36-17,5.59Zm-109-57.13c3.08.41,5.81,1.25,5.29,5.13-.59,4.3-6.22,7.29-6.38,11.17-.17,3.89,4.63,8.84,6.71,11.92c3.88,5.76,2.15,7.08,9.43,17.82c0,0,8.57,14.09,8.57,14.09s10.8,17,10.8,17c2.86,4.78,7.97,15.52,13.59,16.73c2.3.84,4.71-.04,6.99,0c6.96-.9,11.65,4.18,5.85,9.95-2.48,2.47-13.62,9.22-17.02,10.67-3.96,1.68-4.26.99-8.79,3.88-5.66,3.61-15.15,11.52-22.04,11.61-3.72.05-7.21-2.62-6.6-6.67.63-4.15,7.1-5.88,7.58-10.18.27-2.51-4.72-9.55-6.26-11.99c0,0-6.41-12-6.41-12s-5.95-8-5.95-8-4.34-9-4.34-9-5-7-5-7-3.56-7-3.56-7-5.63-8-5.63-8c-1.98-3.22-5.68-10.35-8.2-12.69-5.61-5.2-14.31,2.88-16.79-4.52-1.63-4.86,4.62-10.11,8.16-12.32c0,0,10.17-6.21,10.17-6.21s6.83-2.9,6.83-2.9s7-4.89,7-4.89c3.2-1.97,12.38-5.96,16-6.6Zm-497.85,5.32c8.17-1.77,14.74,4.42,21.85,7.53c7.98,3.49,18.85,8.27,25.91,13.06c0,0,5.26,4.04,5.26,4.04c10.67,7.08,18.32,10.51,23.49,23.18c5.85,14.37-3.21,35.88-17.66,41.78-3.37,1.38-6.45,1.21-10,1.22c0,0-15,0-15,0-14.82-.18-19.58-10.11-26.82-3.74-4.45,3.93-7.8,13.15-10.18,18.74-.89,2.09-2.7,5.59-2.19,7.83.66,2.94,5.09,5.46,5.51,10.17.34,3.72-2.65,6.49-6.32,6.14-1.4-.13-3.64-1.17-5-1.69-13.19-5.11-7.61-3.59-18-9.84c0,0-17-8.31-17-8.31-3.29-1.71-8.58-5.83-7.29-10.17c1.33-4.52,7.82-3.69,11.29-4.7c3.87-1.13,5.74-3.44,8.2-6.43c6.91-8.44,8.23-15.58,13.06-25c0,0,10.26-18.91,10.26-18.91s5.35-7.13,5.35-7.13c1.67-2.8,9.16-18.86,9.08-21.5-.21-6.24-11.73-9.85-3.8-16.27ZM954,1315c1.09,8.03,4.08,10.69,7.59,17.04c1.48,2.67,1.58,5.6,3.72,6.22c3.28.94,13.06-8.6,11.52-11.84-.9-1.9-4.95-2.93-6.83-3.76-5.99-2.62-9.57-6.35-16-7.66Zm-539,62c2.23.64,12.23,2.79,14,2.3c6.84-1.91,12.25-15.18,14.64-21.3c1-2.55,2.92-5.18,2.44-8-.62-3.64-5.85-9.7-9.95-9.47-1.78.11-4.34,2.48-6.13,3.47c0,0-15,33-15,33Zm407,45c-.32,5.7,4.16,13.51,6.43,19c1.38,3.36,1.88,6.24,4.91,8.6c5.64,4.39,12.9,1.74,14.33,7.51c1.65,6.65-4.04,7.74-8.67,9.43c0,0-12,5.29-12,5.29-8.65,3.34-5.88.76-18,6.49-2.65,1.25-11.21,4.8-13.7,3.45-1.45-.79-2.13-2.31-2.58-3.81-.82-2.73-.9-6.04,1.02-8.33c2.28-2.73,5.99-2.93,5.16-7.65c0,0-5.13-13.98-5.13-13.98s-5.55-18-5.55-18-4.04-7.28-4.04-7.28-9.4-26.72-9.4-26.72-1.58-7-1.58-7c-1.35-4.17-6.05-11.95-11.2-10.87c0,0-5,2.06-5,2.06-3.09,1.11-7.13.93-8.1,4.87-.76,3.05,3.95,19.85,4.97,23.94c0,0,2.6,14,2.6,14s1.98,6,1.98,6s1.01,7,1.01,7s2.08,9,2.08,9c1.49,8.42-.8,7.86,4.77,20c1.35,2.93,2.66,5.78,5.79,7.11c3.35,1.42,7.66.21,10.59,2.63c3.2,2.65,2.55,7.97-.92,10.09-2.46,1.5-9.12,1.1-12.77,1.83c0,0-11,1.95-11,1.95s-7,2.06-7,2.06c-9.23,1.61-3.76-.92-17,2.96-4.13,1.21-10.48,2.63-12.38-2.69-3.01-8.39,10.38-7.18,11-15.94.69-9.58-1.69-11.5-3.5-19c0,0-.68-6-.68-6s-1.76-5-1.76-5-1.09-6-1.09-6-2.1-6-2.1-6-.95-7-.95-7-2.03-8-2.03-8-.81-8-.81-8c-.52-3.65-3.92-16.04-5.84-18.69-1.8-2.5-6.78-3.86-8.84-.96-1.27,1.79-1.06,6.44-1.03,8.65.14,5.04,2.01,11.08,0,15.87-2.04,4.76-7.38,4.47-10.48.9-3.22-3.7-4.22-14-9.84-18.65-2.85-2.36-4.52-2.07-7.67-3.26c0,0-6-2.45-6-2.45-4.97-1.19-13.19-.9-16.4,3.7-2.28,3.27-.65,8.85-.52,12.89c0,0,0,7,0,7s0,7,0,7c.29,1.52.41,5.52,1.1,6.67c2.69,4.51,9.01-1.34,10.96-3.76c4.04-5.02,3.66-10.46,8.19-14.6c5.08-4.63,7.71-.51,7.95,4.69c0,0,0,6,0,6s0,18,0,18s0,6,0,6c.46,6.12,3.53,7.26,3.18,15-.2,4.41-1.87,12.17-8.27,10.16-4.67-1.47-4.07-8.31-5.61-11.98-1.17-2.8-5.03-5.92-7.3-8.11-1.96-1.9-4.86-4.84-7.85-3-2.49,1.53-2.4,11.94-2.26,14.93.32,6.71-1.73,21.32,5.92,24.4c1.94.78,6.68.62,8.91.6c10.07-.12,22.78-8.12,28.53-16.28c3.74-5.32,3.89-14.53,10.46-14.35c4.86.14,5.98,4.66,5.98,8.63c0,5.98-1.9,6.74-2.7,11-1.17,6.21.25,16.46-5.68,20.91-3.98,2.99-16.36,2.08-21.59,2.09c0,0-15,1-15,1s-18,0-18,0-13-1-13-1-20,0-20,0c-3.24-.04-9.87-.06-9.46-4.94.37-4.46,11.59-6.64,13.27-13.64.56-2.33-.98-4.53-.96-7.42c0,0,0-9,0-9s0-52,0-52c.14-4.77-1.55-15.19-5.28-18.4-3.72-3.21-11.19.73-11.41-7.6-.22-8.75,9.57-5.79,14.84-6.09c0,0,20-.91,20-.91s28,1,28,1s29-1.21,29-1.21s7-2.16,7-2.16s8.17-.89,8.17-.89s16.83-5.21,16.83-5.21s9-.94,9-.94s7-2.32,7-2.32s7-.76,7-.76s7-2.29,7-2.29c3.65-.6,6.51.16,13-1.73c0,0,35-14.87,35-14.87c10.44-3.14,18.26-2.75,29-2.62c9.72.12,19.84,6.04,24.1,15c1.9,3.98,2.97,12.52,2.88,17-.07,4.02-.99,10.22-2.98,13.72-2.22,3.9-5.14,6.19-9,8.28c4.64,7.76,13.98,10.67,20.99,15.73c6.45,4.67,6.52,7.16,11.05,9.49c0,0,11.79,6.2,11.79,6.2c2.99,1.31,5.83.98,7.1,4.69c2.81,8.23-6.96,9.54-10.93,11.1c0,0-6,2.8-6,2.8s-6,1.55-6,1.55c-3.27,1.17-5.21,3.46-9,3.24-5.53-.31-13.83-7.21-18-10.59c0,0-19.91-13.99-19.91-13.99s-8.09-7.22-8.09-7.22Zm-521-73.41c3.67-.74,5.25-.74,9,0c3.09.33,7.33,1.07,9.83,2.97c5.57,4.25,7.02,15.33,3.72,21.34-1.28,2.32-3.34,3.72-5.28,5.43-5.2,4.59-6.19,4.93-13.27,4.65-17.3-.68-21.13-25.3-4-34.39Zm511.04,14.14c-1.85.09-3.51.3-5.32.72-12.71,2.94-1.26,18.01,1.72,24.55c2.08,4.57,1.49,11.96,7.58,12.85c8.29,1.22,12.64-5.23,12.37-12.85-.1-2.64-1.24-5.48-2.05-8-2.64-8.28-4.63-14.86-14.3-17.27Zm-295.02,2.01c10.45-2.55,13.81,2.13,19.56,3.32c0,0,7.42,0,7.42,0s20,2.48,20,2.48c3.46.74,11.75,3.24,11.72,7.55-.04,6.75-6.74,4.77-10.72,5.34-3.53.5-5.73,2.37-7.15,5.59-1.75,3.97-1.48,8.02-2.45,11.98c0,0-1.93,7-1.93,7s-.85,8-.85,8-2.54,8-2.54,8s0,7,0,7-1.96,9-1.96,9-1.13,10-1.13,10-2.89,16-2.89,16c-.52,2.2-1.9,5.79-1.32,7.94c1.17,4.3,6.62,3.95,10.22,5.23c6.32,2.02,7.44,1.9,14,0c12.45-3.37,16.39-9.92,24.59-19.15c2.32-2.61,6.58-5.68,9.81-2.42c2.7,2.73.41,7.39-.5,10.4c0,0-6.07,22-6.07,22-.99,2.54-2.49,6.27-5.05,7.37-2.84,1.55-5.88.2-8.78,0-9.76-1.41-4.09.38-16-2.61-5.04-1.27-7.64-.36-12-1.08c0,0-15-3.31-15-3.31s-6-1.98-6-1.98-9-.57-9-.57-7-1.5-7-1.5c-8.13-1.31-7.47,1.35-17-2.58-1.94-.8-4.65-1.51-5.18-3.88-1.56-7.01,9.5-4.57,13.55-12.86c6.46-13.25,3.15-11.67,5.01-21c0,0,2.29-8,2.29-8s.96-8,.96-8s2.16-7,2.16-7s.62-8.91.62-8.91c.71-2.88,2-3.56,2.67-7.13c0,0,0-8.96,0-8.96c1.1-6.17,2.53-7.8,1.68-14.91-.32-2.66-.71-4.57-3.02-6.21-2.87-2.03-8.66-2.77-7.08-7.85.77-2.48,2.33-3.15,4.36-4.29ZM443,1428.53c4.06-.43,15.63,2.58,18.01,6.03c1.32,1.91,1.33,6.15,1.25,8.44-.26,7.13.63,11.4-5.44,16.36-2.18,1.77-4.02,2.92-6.82,3.42-3.11.54-10.2.46-12.99-.95-8.59-4.38-10.79-19.51-5.36-26.74c2.91-3.87,6.86-5.35,11.35-6.56Z" transform="translate(0.005 6.517515)" fill="#fff" stroke="#fff" stroke-width="0"/></svg>
