<svg id="eDKV18jbJs71" xmlns="http://www.w3.org/2000/svg" xmlns:xlink="http://www.w3.org/1999/xlink" viewBox="0 0 1294 1600" shape-rendering="geometricPrecision" text-rendering="geometricPrecision" project-id="5a527ecce0fb4288b3b2ce07a2753190" export-id="3fa10a2bb7374023b7a8f89be14ee4b8" cached="false"><path d="M1312,827.55c4.1-.11,9.94.84,11.34,5.49c1.3,4.29-3.62,7.55-6.34,10.03-6.6,6.03-19.23,18.77-28,19.74-11.32,1.26-8.76-5.7-3.71-11.81c3.33-4.03,15.31-18.58,18.8-20.78c2.53-1.59,5.04-2.12,7.91-2.67ZM365,898c0,0-4.14,12-4.14,12-1.83,5.17-3.17,10.03-5.67,15-9.08,18.05-25.7,29.9-46.19,30-8.76.04-12.47.66-21-2.17c0,0-14-5.92-14-5.92-3.79-.06-6.18,4.81-16,7.33-3.81.98-8.07.8-12,.76-15.07-.19-23.32-9.13-22.99-24c.22-9.52,4.39-18.28,7.79-27c0,0,11.2-31,11.2-31c1.96-5.77,7.13-17.5-3-18.73-10.77-1.31-15.9,15.07-18.81,22.73c0,0-21.18,59-21.18,59-2.87,8.13-4.41,18.21-15.01,18.86-1.21.17-3.84.13-5,0-12.23-2.31-6.7-16.46-3.8-23.86c0,0,20.64-56,20.64-56c2.23-5.83,6.8-15.9,0-20.22-1.91-1.26-3.67-1.26-5.84-.63-8.11,2.35-11.83,12.65-14.34,19.85c0,0-12.31,34-12.31,34s-9.93,28-9.93,28-3.53,10-3.53,10c-3.28,7.45-12.15,12.24-19.7,7.58-8.96-5.52-.98-22.12,1.67-29.58c0,0,26.19-73,26.19-73c3.13-8.56,4.67-21.32,15.95-21.96c5.22-.29,9.15.23,12,4.96c0,0,10-4.37,10-4.37c8.73-2.48,19.83-.23,24,8.37c12.32-5.15,11.9-9.18,28-9c3.59.04,6.59.27,10,1.56c11.18,4.22,14.12,13.57,14,24.44-.11,8.83-6.51,23.32-9.81,32c0,0-4.5,12-4.5,12s-2.92,9-2.92,9-7.29,20-7.29,20c-.98,4.23.29,8.5,5.52,7.29c8.33-1.92,13.37-13.14,16.05-20.29c5.56-14.87,8.56-33.85,23.95-41.73c4.55-2.32,9.88-3.79,15-4.06c3.17-.17,7.99.84,11,1.89c29.54,10.27,17.68,51.61-11,52.86-8.02.35-10.82-.93-18.01-3.96-.16,2.42-.73,5.73,0,8c1.72,5.49,7.64,8.46,13.01,9.02c10.19,1.07,20.41-3.15,27.57-10.32c7.2-7.2,10.3-16.34,13.75-25.7.93-2.53,3.65-9.7,3.88-12c.43-4.45-2.61-6.69-2.1-14c1.05-15.09,16.42-17.78,23.26-10.47c3.42,3.64,3.59,7.8,3.64,12.47c9.55,1.5,22.86,8.66,24.67,19c.96,5.47-.96,10.96-2.86,16c0,0-6.1,18-6.1,18-.52,2.03-1.27,5.43,1.54,6.18c2.44.65,5.13-1.9,6.62-3.51c4.31-4.66,7.66-10.63,9.54-16.67c0,0,3.85-11,3.85-11c6.32-19.51,11.1-33.88,34.74-35.68c3.04-.23,6.05.42,9,1.11c21.93,5.09,25.51,29.57,11.68,44.4-6.05,6.48-14.94,9.48-23.68,9.13-5.59-.23-9.03-1.63-14-3.96-.37,2.06-1.06,4.96-.65,7c.56,2.73,2.53,4.91,4.67,6.58c8.91,6.99,23.68,2.59,31.98-3.37c8.16-5.85,7.56-8.8,10.81-17.21c0,0,8.86-24,8.86-24c1.68-5.02,4.12-14.66,8.54-17.59c6.6-4.49,11.17-.6,14.37,0c0,0,12.42-2.09,12.42-2.09c2.89-.23,6.25.36,9,1.28c2.53.84,4.91,2.11,6.97,3.79c13.8,11.12,4.88,29.2,0,42.61-1.46,3.92-9.13,18.47-1.91,19.58c3.41.52,6.68-2.45,8.92-4.62c5.92-5.72,7.98-11.33,10.44-18.96c2.06-6.36,9.56-28.34,12.65-32.83c5.91-8.6,16.86-12.62,26.93-10.13c5.01,1.24,7.71,3.35,12,5.96c0,0,7.58-23,7.58-23c2.12-5.67,5.9-18.9,10.61-22.26c6.72-4.79,16.72-.28,16.55,8.26-.09,4.35-5.74,19-7.52,24c0,0-15.89,46-15.89,46s-6.51,19-6.51,19c-.88,2.51-1.88,5.32.53,7.39c2.86,2.44,6.27.34,8.65-1.62c4.93-4.04,8.23-8.87,10.54-14.77c6.71-17.13,8.51-40.14,28.46-47.3c2.73-.98,7.13-2.09,10-2.4c3.49-.37,8.65.53,12,1.6c19.59,6.25,23.27,29.78,9.7,43.93-10.38,10.82-24.84,11.2-37.86,5.17-.17,2.54-.84,5.49,0,7.99c3.37,12.73,23.59,9.86,32.16,4.75c4.22-2.51,9.55-6.68,12.3-10.74c2.6-3.83,4.04-9.62,5.56-14c0,0,10.81-30,10.81-30c3.1-6.67,10.13-11.59,17.12-6.77c6.84,4.71,3.46,12.63,1.38,18.77c0,0-10.83,31-10.83,31-1.03,2.97-3.83,9.91-2.7,12.77c1.21,3.09,4.68,3.23,7.35,2.13c4.31-1.78,8.01-7.04,10.39-10.9c3.87-6.27,8.87-18.84,11.29-26c0,0,3.34-10,3.34-10c.58-4.69-2.36-5.25-1.97-14c.62-13.82,14.98-18.53,22.92-10.47c5.11,5.19,2.98,8.99,5.64,11.77c1.53,1.61,6.13,2.95,8.4,4.07c7.21,3.56,13.27,8.18,14.5,16.63c1.05,7.29-5.23,21.83-8.05,29-.75,2.34-3.59,8.23,0,9.75c4.26,1.93,10.64-7.44,12.08-10.75c0,0,10.47-30,10.47-30c2.16-6.33,4.6-13.81,9.44-18.53c5.17-5.05,13.39-7.67,20.56-7.01c0,0,12,2.08,12,2.08c3.88-.06,5.36-2.95,11-3.43c7.46-.64,13.42,4.06,12.4,11.89c0,0-13.54,40-13.54,40-1.35,3.88-7.6,18.55,2.14,16.29c7.99-1.85,13.6-12.46,16.69-19.29c2.14-4.73,2.73-8.58,8.35-10.35c8.67-2.74,13.45,3,11.35,11.35-2.65,10.58-9.85,23.37-18.48,30.11-8.16,6.38-20.84,8.69-30.91,6.36-6.41-1.48-8.34-5.07-11.28-4.84-2.79.22-6.56,4.37-12.72,5.18-3.6.48-10.55.28-14-.8c0,0-8.42-3.59-8.42-3.59-3.02-.25-6.95,3.27-12.58,4.25-14.72,2.58-29.93-4.87-28.91-21.67.4-6.59,3.79-13.75,5.91-20c.86-2.55,2.43-6.33,1.5-8.96-1.15-3.26-4.61-4.72-7.5-6.04c0,0-5.57,15-5.57,15-5.36,14.84-9.97,28.96-24.43,37.68-7.42,4.47-19.71,6.08-28,3.21-5.42-1.87-7.91-5.17-11-5.54-2.2-.27-8.36,2.75-11,3.65-6.97,2.35-10.67,2.99-18,3-8.15.01-12.09.63-20-2.22c0,0-13-6.09-13-6.09-2.87-.36-6.43,2.77-9,4.14-5.42,2.89-8.85,4.09-15,4.17-4.11.04-8.08.12-12-1.33c0,0-8.43-4.08-8.43-4.08-2.09-.2-7.14,3.01-9.57,3.94-4.28,1.64-7.52,1.52-12,1.47-3.94-.05-6.33-.23-10-1.92-2.08-.95-4.85-3.06-7-3.21-2.57-.17-9.21,3.73-13,4.6-14,3.21-30.76-2.06-31.9-18.47-.58-8.24,7.55-27.29,10.56-36c1.16-3.38,4.21-10.78-1.72-11.55-7.7-1.01-12.62,10.97-14.75,16.55c0,0-12.78,36-12.78,36-2.56,7.02-4.93,13.38-13.41,14.66-6.24.94-8.34-2.93-13-2.88c0,0-9,1.74-9,1.74-4.33.81-18.8.71-23,0-3.98-1.04-8.47-2.7-12-4.72-2.03-1.15-4.56-3.35-7-3.07c0,0-11,5.96-11,5.96-8.84,3.98-21.77,3.53-28.81-3.79-8.08-8.4-5.48-20.04-2.19-29.9c3.37-10.11,9.19-16.25-4-21Zm626-22c0,0,7.86-23,7.86-23c2.14-6.05,5.45-17.7,10.24-21.69c5.56-4.63,17.37-2.63,16.79,8.69-.2,3.92-6.91,22.06-8.67,27c0,0-15.27,44-15.27,44s-6.19,18-6.19,18c-.55,2.37-.95,5.46,1.55,6.93c2.53,1.49,5.62-.38,7.65-1.87c5.3-3.87,7.1-8.11,9.18-14.06c0,0,8-23,8-23c4.26-12.27,6.58-22.59,20.86-26.51c2.83-.78,6.06-1.4,9-1.17c0,0,13,2.37,13,2.37c4.47-.27,6.83-4.51,14-3.48c7.68,1.11,9.88,6.81,8.67,13.79c0,0-13.33,39-13.33,39-1.14,3.28-5.06,11.51-2.51,14.4c3.2,3.63,9.67-1.17,12.13-3.5c3.91-3.7,6.52-8.04,8.73-12.9c1.6-3.52,2.56-7.97,5.53-10.57c4.04-3.53,11.87-3.48,14.6,1.63c2.94,5.51-3.2,17.93-6.05,22.94-9.24,16.24-18.14,22.22-36.77,22-8.11-.1-11.64-2.14-18-7-5.98,6.78-18.63,8.94-27,5.87-3.6-1.32-6.12-3.45-9-5.87-6.24,7.06-20.35,8.86-29,5.89-3.84-1.31-6.82-3.46-10-5.89-6.15,6.57-12.51,7.1-21,7-10.15-.12-17.84-5.02-20.95-15-3.03-9.75,2.98-21.79,6.26-31c5.94-16.71,10.34-41.7,33.69-39.67c7.13.62,10.28,2.95,16,6.67Zm219-46.56c11.76-1.53,25.16-.06,33.24,9.73c6.61,8.02,9.65,24.8-5.24,24.8-11.78,0-9.91-11.57-19-13.5-4.76-1.01-13.92,4.11-9.09,13.53c8.87,17.27,28.06,25.52,28.09,50c.02,19.89-12.81,35.04-32,40.08-4.83,1.26-11.88.98-17,.92-15.31-.18-29.46-9.71-35.07-24-3.5-8.91-4.09-24.52,8.07-26.48c2.32-.38,4.85-.1,6.98.91c7.9,3.74,5.01,10.96,7.44,17.57c2.39,6.48,8.79,10.97,15.58,11.66c11.1,1.14,25.92-11.16,18.17-26.66-8.65-17.31-27.69-25.98-27.16-49c.14-5.93,1.37-10.08,4.76-15c2.25-3.25,5.04-6.47,8.27-8.78c4.16-2.96,9-4.75,13.96-5.78Zm-477,3.08c4.36-.28,9.45.87,12.15,4.69c5.06,7.18.42,18.34-8.15,19.58-15.44,2.22-20.56-20.07-4-24.27ZM1269,920c-.31,1.76-.87,4.26-.68,6c.81,7.56,9.08,10.85,15.68,10.98c9.77.21,19.13-3.87,25.83-11.02c7.82-8.35,6.95-13.72,12.22-17.11c5-3.2,13.77-2,14.68,5.15.86,6.73-7.41,19.11-11.73,23.96-4.01,4.51-7.68,7.81-13,10.73-12.13,6.66-21.72,6.47-35,6.31-13.97-.17-27.28-8-31.07-22-2.86-10.54,4.96-27.7,8.57-38c5.39-15.37,17-27.14,34.5-25.82c17.55,1.33,28.93,14.19,24.76,31.82-1.31,5.54-3.87,10.76-7.94,14.82-10.24,10.2-24.57,9.95-36.82,4.18ZM306.01,888.45c-9.07,3.68-12.38,19.65,1.95,14.9c7.68-2.55,8.77-15.73-1.95-14.9ZM435,903c2.46.6,4.43,1.04,7,.94c2.13-.07,4.02-.38,5.79-1.68c9.23-6.77.05-20.36-8.4-11.11-1.27,1.39-2.16,3.1-2.83,4.85-.86,2.26-1.22,4.62-1.56,7Zm223,0c2.64.64,5.25,1.19,8,.86c1.82-.21,3.29-.65,4.79-1.75c9.68-7.11-.46-20.09-8.15-10.96-1.06,1.25-2.11,3.34-2.76,4.85-1.11,2.57-1.45,4.28-1.88,7Zm618,0c2.44.59,4.44,1.07,7,.88c2.07-.15,3.97-.65,5.67-1.89c9.38-6.81-.23-19.85-8.25-10.84-1.26,1.41-2.04,3.1-2.71,4.85-.88,2.3-1.34,4.58-1.71,7ZM587,889.54c-2.2.81-2.69.76-4.36,2.69-3.11,3.56-8.03,19.51-9.66,24.77-.91,2.91-2.82,7.99-2.24,10.94c1.41,7.18,9.03,2.43,11.87-.98c3.39-4.06,10.15-23.49,10.68-28.96.5-5.04-.94-8.31-6.29-8.46Zm255.01.12c-5.15,2.71-6.06,6.12-7.96,11.34c0,0-8.44,27-8.44,27-1.37,5.44.38,11.08,7.22,8.26c3.04-1.26,5.67-5.36,6.96-8.26c0,0,8.89-28,8.89-28c.88-5.45-.08-10.79-6.67-10.34Zm131.98.05c-2.66,1.32-3.5,1.74-5.29,4.31-2.04,2.93-8.77,23.5-9.99,27.98-1.35,4.98-1.32,12.07,6.28,9.13c3.67-1.42,5.6-4.77,7.22-8.13c1.9-3.91,7.12-17.9,7.97-22c1.13-5.43.79-11.55-6.19-11.29Zm78.04-.14c-6.55,2.88-7.56,9.18-9.46,15.43c0,0-6.19,19-6.19,19-.88,3.42-3.24,11.29,1.75,12.53c4.5,1.11,8.49-2.99,10.46-6.53c2.08-3.75,9.17-26.52,9.76-31c.66-5.06-.47-9.63-6.32-9.43Z" transform="translate(-84.426559 -91.670471)" fill="#fff" stroke="#000"/></svg>
