<?xml version="1.0" encoding="UTF-8" standalone="no"?>
<!DOCTYPE svg PUBLIC "-//W3C//DTD SVG 20010904//EN"
              "http://www.w3.org/TR/2001/REC-SVG-20010904/DTD/svg10.dtd">

<svg xmlns="http://www.w3.org/2000/svg"
     width="4.82667in" height="6.82667in"
     viewBox="0 0 1448 2048">
  <path id="Seleção"
        fill="none" stroke="black" stroke-width="1"
        d="M 365.00,898.00
           C 365.00,898.00 360.51,911.00 360.51,911.00
             354.04,930.35 346.20,944.23 326.00,951.68
             319.19,954.19 316.31,954.96 309.00,955.00
             300.24,955.04 296.53,955.66 288.00,952.83
             288.00,952.83 274.00,946.91 274.00,946.91
             270.21,946.85 267.82,951.72 258.00,954.24
             254.19,955.22 249.93,955.04 246.00,955.00
             230.93,954.81 222.68,945.87 223.01,931.00
             223.23,921.50 227.38,912.70 230.80,904.00
             230.80,904.00 242.00,873.00 242.00,873.00
             243.96,867.23 249.13,855.50 239.00,854.27
             228.50,852.99 222.86,869.34 220.05,877.00
             220.05,877.00 210.31,905.00 210.31,905.00
             210.31,905.00 199.00,936.00 199.00,936.00
             196.23,944.13 194.48,954.22 184.00,954.95
             172.79,955.72 169.52,948.95 172.44,939.00
             172.44,939.00 194.78,878.00 194.78,878.00
             197.03,871.68 204.06,858.33 194.78,854.27
             184.67,849.68 177.70,868.24 175.31,875.00
             175.31,875.00 158.05,923.00 158.05,923.00
             158.05,923.00 150.24,945.00 150.24,945.00
             146.96,952.83 138.46,958.34 130.19,953.55
             121.18,948.32 129.29,931.24 131.86,924.00
             131.86,924.00 158.05,851.00 158.05,851.00
             161.21,842.53 162.83,829.68 174.00,829.04
             179.22,828.75 183.15,829.27 186.00,834.00
             186.00,834.00 196.00,829.79 196.00,829.79
             204.84,827.28 215.72,829.17 220.00,838.00
             227.41,834.91 229.74,831.65 239.00,829.67
             242.47,828.93 247.45,828.83 251.00,829.09
             266.16,830.20 272.16,841.08 272.00,855.00
             271.87,865.64 261.59,887.84 257.69,899.00
             257.69,899.00 254.39,909.00 254.39,909.00
             254.39,909.00 247.39,928.00 247.39,928.00
             246.33,932.29 247.76,936.50 253.00,935.29
             261.00,933.45 266.69,922.05 269.17,915.00
             269.17,915.00 273.49,903.00 273.49,903.00
             277.62,890.59 280.18,879.84 293.00,873.27
             297.55,870.95 302.88,869.48 308.00,869.21
             311.17,869.04 315.99,870.05 319.00,871.10
             348.45,881.34 336.81,922.61 308.00,923.96
             300.04,924.33 297.11,923.00 289.99,920.00
             289.83,922.42 289.26,925.73 289.99,928.00
             291.71,933.49 297.63,936.46 303.00,937.02
             313.45,938.12 323.92,933.60 331.25,926.25
             337.70,919.79 341.52,908.56 344.68,900.00
             345.68,897.29 348.09,891.61 348.28,889.00
             348.59,884.59 345.59,882.26 346.10,875.00
             347.15,859.91 362.52,857.22 369.36,864.53
             372.78,868.17 372.95,872.33 373.00,877.00
             382.55,878.50 395.86,885.66 397.67,896.00
             398.63,901.47 396.71,906.96 394.81,912.00
             394.81,912.00 388.61,930.00 388.61,930.00
             388.08,932.10 387.24,935.43 390.17,936.18
             392.68,936.83 395.33,934.34 396.87,932.67
             401.18,928.01 404.53,922.04 406.41,916.00
             406.41,916.00 410.26,905.00 410.26,905.00
             416.55,885.58 421.40,871.12 445.00,869.32
             448.20,869.08 451.89,869.88 455.00,870.67
             475.05,875.75 478.96,897.79 467.24,912.96
             461.47,920.42 451.26,924.33 442.00,923.96
             436.41,923.73 432.97,922.33 428.00,920.00
             427.62,922.14 426.97,924.85 427.31,927.00
             428.09,931.79 432.65,934.89 437.00,936.20
             446.00,938.92 456.62,935.51 464.00,930.21
             466.61,928.34 469.46,925.76 471.15,923.00
             471.15,923.00 483.67,889.00 483.67,889.00
             485.14,884.59 487.90,874.78 491.39,871.90
             498.50,866.31 504.47,871.62 507.42,871.90
             507.42,871.90 519.00,869.32 519.00,869.32
             521.89,869.09 525.26,869.68 528.00,870.60
             530.53,871.44 532.91,872.71 534.97,874.39
             548.77,885.51 539.85,903.59 534.97,917.00
             533.51,920.92 525.84,935.46 533.06,936.58
             535.93,937.02 538.84,934.90 540.91,933.18
             547.18,927.97 549.99,920.54 552.42,913.00
             552.42,913.00 557.67,898.00 557.67,898.00
             562.74,882.94 566.65,870.91 585.00,869.33
             592.51,868.68 597.94,872.30 604.00,876.00
             604.00,876.00 611.58,853.00 611.58,853.00
             613.70,847.33 617.48,834.10 622.19,830.74
             628.91,825.95 638.80,830.53 638.72,839.00
             638.69,842.75 632.83,858.47 631.22,863.00
             631.22,863.00 615.33,909.00 615.33,909.00
             615.33,909.00 609.27,927.00 609.27,927.00
             608.21,929.71 606.65,933.07 609.27,935.39
             615.39,940.56 625.06,926.47 627.21,922.00
             635.62,904.52 635.62,879.35 657.00,871.70
             660.02,870.62 664.81,869.58 668.00,869.32
             671.27,869.06 674.86,869.86 678.00,870.75
             696.76,876.01 701.67,895.53 691.67,910.99
             686.09,919.62 675.08,924.37 665.00,923.96
             659.41,923.73 655.97,922.33 650.84,920.00
             650.67,922.54 650.00,925.49 650.84,927.99
             654.41,941.44 675.24,937.34 683.96,932.27
             688.04,929.90 692.67,925.90 695.30,922.00
             697.90,918.15 699.33,912.40 700.86,908.00
             700.86,908.00 711.23,879.00 711.23,879.00
             714.26,871.97 721.24,866.03 728.79,871.23
             735.61,875.92 732.27,883.87 730.17,890.00
             730.17,890.00 719.34,921.00 719.34,921.00
             718.47,923.53 715.57,930.85 716.19,933.18
             717.23,937.09 720.88,937.45 724.04,935.96
             728.96,933.64 731.89,929.58 734.51,925.00
             738.34,918.32 743.17,906.41 745.67,899.00
             745.67,899.00 749.01,889.00 749.01,889.00
             749.59,884.31 746.65,883.75 747.04,875.00
             747.69,860.58 762.54,857.01 769.96,864.53
             775.06,869.70 772.94,873.52 775.60,876.30
             777.13,877.91 781.73,879.25 784.00,880.37
             791.06,883.85 797.44,888.62 798.45,897.00
             799.38,904.73 793.38,918.53 790.45,926.00
             789.70,928.34 786.86,934.23 790.45,935.75
             794.71,937.68 801.09,928.31 802.53,925.00
             807.77,912.95 814.01,885.47 822.10,877.04
             827.11,871.82 834.78,869.05 842.00,869.51
             842.00,869.51 855.00,871.54 855.00,871.54
             858.88,871.48 860.36,868.59 866.00,868.11
             873.42,867.47 879.47,872.19 878.40,880.00
             878.40,880.00 864.86,920.00 864.86,920.00
             863.59,923.67 858.97,934.27 863.71,936.59
             866.60,938.00 870.98,934.57 873.00,932.81
             883.32,923.85 882.98,914.70 887.80,909.39
             891.52,905.29 900.51,904.26 903.15,910.11
             904.91,914.03 902.98,919.20 901.66,923.00
             897.77,934.12 890.66,945.66 880.00,951.36
             873.17,955.01 860.40,956.35 853.00,954.21
             847.92,952.75 845.79,950.01 843.00,949.90
             839.28,949.75 835.81,954.51 828.00,954.96
             824.40,955.16 819.43,955.08 816.00,954.01
             813.08,953.10 809.55,950.64 807.00,950.63
             804.48,950.61 800.06,953.34 797.00,954.21
             791.03,955.91 781.35,955.34 776.00,952.01
             762.99,943.90 765.30,931.14 769.81,919.00
             771.04,915.69 774.55,907.33 773.79,904.10
             772.96,900.64 768.91,899.27 766.00,898.00
             759.22,917.56 751.06,947.14 729.00,954.01
             725.14,955.21 721.00,955.02 717.00,955.00
             712.35,954.98 709.23,954.86 705.00,952.59
             701.90,950.92 699.27,947.80 696.00,948.12
             696.00,948.12 688.00,951.30 688.00,951.30
             681.90,953.54 676.53,954.92 670.00,955.00
             661.65,955.09 656.01,955.66 648.00,952.78
             648.00,952.78 634.00,946.58 634.00,946.58
             631.63,946.68 628.21,949.58 626.00,950.80
             620.72,953.72 617.01,954.93 611.00,955.00
             606.55,955.05 603.26,955.17 599.00,953.53
             599.00,953.53 590.57,949.59 590.57,949.59
             588.46,949.40 583.44,952.60 581.00,953.53
             576.72,955.17 573.48,955.05 569.00,955.00
             565.06,954.95 562.66,954.77 559.00,953.08
             555.85,951.64 553.64,949.15 550.00,949.99
             547.63,950.53 543.17,953.77 538.00,954.67
             524.09,957.11 508.24,952.31 507.10,936.00
             506.54,928.05 514.65,908.30 517.68,900.00
             518.92,896.60 522.03,889.24 515.94,888.45
             508.46,887.47 503.10,899.42 501.05,905.00
             501.05,905.00 488.05,942.00 488.05,942.00
             485.57,948.73 482.98,954.45 475.00,955.66
             468.76,956.60 466.66,952.73 462.00,952.78
             462.00,952.78 453.00,954.52 453.00,954.52
             448.67,955.33 434.20,955.23 430.00,954.52
             426.02,953.48 421.53,951.82 418.00,949.80
             415.97,948.65 413.44,946.45 411.00,946.73
             411.00,946.73 400.00,952.69 400.00,952.69
             391.16,956.67 378.23,956.22 371.19,948.90
             363.11,940.50 365.71,928.86 369.00,919.00
             372.37,908.89 378.19,902.75 365.00,898.00 Z
           M 297.00,903.00
           C 299.79,903.68 302.09,904.15 305.00,903.89
             307.02,903.72 308.97,903.26 310.61,901.99
             318.53,895.88 310.79,882.18 302.39,890.31
             301.07,891.59 300.19,893.34 299.47,895.00
             298.34,897.57 297.62,900.28 297.00,903.00 Z
           M 443.01,888.60
           C 436.39,892.24 429.85,905.18 443.01,903.89
             453.75,902.84 455.31,886.39 443.01,888.60 Z
           M 658.00,903.00
           C 660.64,903.64 663.25,904.19 666.00,903.86
             667.82,903.65 669.29,903.21 670.79,902.11
             680.47,895.00 670.33,882.02 662.64,891.15
             661.58,892.40 660.53,894.49 659.88,896.00
             658.77,898.57 658.43,900.28 658.00,903.00 Z
           M 587.00,889.54
           C 581.43,891.61 580.19,895.73 578.34,901.00
             578.34,901.00 571.21,922.00 571.21,922.00
             570.07,926.02 569.66,932.70 576.02,931.63
             579.37,931.06 582.28,927.71 584.03,925.00
             586.35,921.40 592.87,902.33 593.29,898.00
             593.79,892.96 592.35,889.69 587.00,889.54 Z
           M 842.01,889.64
           C 836.86,892.40 835.96,895.76 834.05,901.00
             834.05,901.00 825.61,928.00 825.61,928.00
             824.21,933.59 825.93,938.85 832.82,936.30
             836.25,935.03 838.57,931.20 839.91,928.00
             839.91,928.00 848.53,901.00 848.53,901.00
             849.60,895.29 849.46,888.81 842.01,889.64 Z
           M 1310.00,827.53
           C 1314.57,826.89 1321.73,827.71 1323.34,833.04
             1324.58,837.14 1320.34,840.14 1317.71,842.51
             1312.15,847.52 1298.51,860.74 1292.00,862.44
             1285.33,864.19 1277.18,862.41 1282.80,854.00
             1282.80,854.00 1293.84,841.00 1293.84,841.00
             1299.83,834.11 1300.56,830.34 1310.00,827.53 Z
           M 991.00,876.00
           C 991.00,876.00 999.12,853.00 999.12,853.00
             1000.95,847.11 1004.42,835.21 1009.10,831.43
             1016.32,825.60 1026.48,830.49 1025.88,840.00
             1025.61,844.30 1020.04,857.91 1018.33,863.00
             1018.33,863.00 1001.42,912.00 1001.42,912.00
             1001.42,912.00 995.61,929.00 995.61,929.00
             995.05,931.37 994.87,934.50 997.31,935.93
             1001.80,938.57 1008.73,931.40 1010.78,928.00
             1011.95,926.06 1013.00,923.16 1013.78,921.00
             1013.78,921.00 1022.31,897.00 1022.31,897.00
             1027.39,882.71 1030.55,870.23 1049.00,870.00
             1057.11,869.91 1064.40,871.87 1065.00,871.84
             1068.13,871.66 1070.29,869.11 1075.00,868.33
             1082.97,867.00 1088.70,871.76 1087.81,880.00
             1087.35,884.35 1083.68,893.56 1082.05,898.00
             1082.05,898.00 1074.31,921.00 1074.31,921.00
             1073.14,924.27 1068.89,932.48 1071.64,935.40
             1074.77,938.72 1080.43,935.13 1083.00,932.87
             1087.82,928.61 1090.09,924.75 1092.69,919.00
             1094.28,915.48 1095.16,911.18 1098.22,908.65
             1102.87,904.81 1111.78,904.91 1113.34,912.02
             1114.22,915.99 1111.17,923.21 1109.65,927.00
             1102.25,945.47 1090.05,955.24 1070.00,955.00
             1063.88,954.92 1057.36,953.60 1054.00,948.00
             1039.80,955.93 1029.91,959.30 1016.00,948.00
             1010.47,954.15 1002.83,955.09 995.00,955.00
             991.05,954.95 988.64,954.79 985.00,953.00
             982.80,951.92 979.62,949.29 977.28,949.36
             975.11,949.43 970.50,953.21 965.00,954.47
             950.59,957.78 935.72,950.87 934.33,935.00
             933.72,928.14 939.55,913.96 942.05,907.00
             947.68,891.29 950.57,871.43 971.00,869.82
             974.02,869.58 977.05,869.77 980.00,870.51
             984.37,871.61 987.24,873.71 991.00,876.00 Z
           M 1211.00,829.44
           C 1223.37,827.85 1235.37,829.61 1243.61,840.00
             1248.95,846.73 1252.57,862.63 1239.99,863.89
             1228.00,865.08 1228.25,853.81 1220.91,850.89
             1215.30,848.67 1209.14,853.28 1208.42,858.00
             1207.78,862.14 1212.03,867.88 1214.43,871.00
             1220.58,879.02 1228.24,886.06 1233.10,895.00
             1244.44,915.84 1236.06,940.03 1215.00,950.62
             1206.27,955.02 1199.43,955.11 1190.00,955.00
             1174.14,954.81 1158.92,945.24 1153.55,930.00
             1150.04,920.05 1150.92,902.17 1166.00,904.77
             1176.88,906.65 1173.72,914.61 1175.94,922.00
             1177.52,927.27 1181.89,931.65 1187.00,933.60
             1196.04,937.05 1206.08,932.26 1210.59,924.00
             1216.39,913.38 1208.92,905.10 1202.63,897.00
             1193.16,884.81 1182.61,875.70 1183.01,859.00
             1183.16,852.97 1184.94,847.89 1188.49,843.00
             1190.74,839.92 1192.85,837.57 1196.04,835.44
             1201.12,832.04 1205.07,830.58 1211.00,829.44 Z
           M 1269.00,920.00
           C 1268.37,922.24 1267.55,924.64 1267.95,927.00
             1269.16,934.12 1277.60,937.36 1284.00,937.43
             1294.92,937.54 1304.72,932.15 1311.70,924.00
             1318.11,916.50 1317.57,911.41 1323.09,908.57
             1327.64,906.23 1335.18,907.37 1336.53,913.04
             1338.11,919.67 1328.41,934.38 1323.96,938.99
             1310.58,952.80 1289.65,958.08 1271.00,953.98
             1260.66,951.71 1251.12,946.39 1247.24,936.00
             1243.55,926.09 1246.52,919.45 1249.67,910.00
             1254.28,896.15 1256.67,882.58 1270.00,874.13
             1283.55,865.55 1307.50,869.13 1312.94,886.00
             1319.21,905.44 1303.16,925.14 1283.00,923.91
             1278.09,923.61 1273.52,921.80 1269.00,920.00 Z
           M 1284.04,888.51
           C 1277.82,891.40 1271.01,904.48 1283.00,903.95
             1284.32,903.89 1285.75,903.75 1286.98,903.26
             1294.45,900.30 1295.89,886.78 1284.04,888.51 Z
           M 974.04,889.49
           C 968.70,891.63 967.86,894.94 965.95,900.00
             965.95,900.00 958.22,923.00 958.22,923.00
             957.02,927.60 957.75,933.13 964.00,931.47
             967.30,930.60 969.80,927.83 971.47,924.99
             973.33,921.82 979.86,903.71 980.53,900.00
             981.55,894.41 980.67,889.45 974.04,889.49 Z
           M 1051.04,889.62
           C 1045.81,892.60 1045.14,896.61 1043.33,902.00
             1043.33,902.00 1035.90,925.00 1035.90,925.00
             1035.09,928.34 1033.63,935.62 1038.15,936.92
             1042.54,938.19 1046.72,933.37 1048.59,930.00
             1050.95,925.72 1057.91,903.96 1058.55,899.00
             1059.28,893.31 1057.46,888.70 1051.04,889.62 Z" />
  <path id="Seleção #2"
        fill="none" stroke="black" stroke-width="1"
        d="M 214.00,1140.00
           C 214.00,1140.00 228.00,1140.00 228.00,1140.00
             228.00,1140.00 227.00,1157.00 227.00,1157.00
             227.00,1157.00 225.00,1157.00 225.00,1157.00
             225.00,1157.00 224.00,1146.00 224.00,1146.00
             224.00,1146.00 222.00,1146.00 222.00,1146.00
             222.00,1146.00 222.00,1155.00 222.00,1155.00
             222.00,1155.00 219.00,1155.00 219.00,1155.00
             219.00,1155.00 219.00,1146.00 219.00,1146.00
             219.00,1146.00 217.00,1146.00 217.00,1146.00
             217.00,1146.00 217.00,1157.00 217.00,1157.00
             217.00,1157.00 214.00,1157.00 214.00,1157.00
             214.00,1157.00 214.00,1140.00 214.00,1140.00 Z
           M 177.00,1145.00
           C 181.63,1146.77 193.15,1152.22 190.42,1158.67
             189.14,1161.71 180.11,1166.48 177.00,1168.00
             177.00,1168.00 179.16,1156.99 179.16,1156.99
             179.16,1156.99 177.00,1145.00 177.00,1145.00 Z
           M 184.00,1154.00
           C 184.00,1154.00 183.00,1158.00 183.00,1158.00
             183.00,1158.00 187.00,1156.00 187.00,1156.00
             187.00,1156.00 184.00,1154.00 184.00,1154.00 Z
           M 193.00,1153.00
           C 195.53,1155.65 196.30,1156.69 193.00,1159.00
             193.00,1159.00 193.00,1153.00 193.00,1153.00 Z
           M 126.00,1035.00
           C 126.00,1035.00 1322.00,1035.00 1322.00,1035.00
             1322.00,1035.00 1322.00,1340.00 1322.00,1340.00
             1322.00,1340.00 126.00,1340.00 126.00,1340.00
             126.00,1340.00 126.00,1035.00 126.00,1035.00 Z
           M 1315.00,1042.00
           C 1315.00,1042.00 133.00,1042.00 133.00,1042.00
             133.00,1042.00 133.00,1333.00 133.00,1333.00
             133.00,1333.00 1315.00,1333.00 1315.00,1333.00
             1315.00,1333.00 1315.00,1042.00 1315.00,1042.00 Z
           M 323.00,1330.00
           C 321.17,1329.98 318.09,1330.16 316.60,1328.98
             314.62,1327.41 315.00,1323.30 315.00,1321.00
             315.00,1321.00 316.00,1303.00 316.00,1303.00
             316.00,1303.00 316.00,1256.00 316.00,1256.00
             316.00,1256.00 317.00,1239.00 317.00,1239.00
             317.00,1239.00 317.00,1195.00 317.00,1195.00
             317.00,1195.00 318.00,1178.00 318.00,1178.00
             318.00,1178.00 318.00,1120.00 318.00,1120.00
             318.00,1120.00 319.00,1103.00 319.00,1103.00
             319.00,1103.00 319.00,1055.00 319.00,1055.00
             319.00,1052.74 318.75,1048.37 320.17,1046.57
             321.94,1044.34 326.16,1044.78 327.13,1047.31
             328.63,1049.82 327.01,1061.12 327.13,1065.00
             327.13,1065.00 327.13,1104.00 327.13,1104.00
             327.13,1104.00 326.00,1121.00 326.00,1121.00
             326.00,1121.00 326.00,1178.00 326.00,1178.00
             326.00,1178.00 325.00,1193.00 325.00,1193.00
             325.00,1193.00 325.00,1242.00 325.00,1242.00
             325.00,1242.00 324.00,1257.00 324.00,1257.00
             324.00,1257.00 324.00,1307.00 324.00,1307.00
             324.00,1307.00 323.00,1330.00 323.00,1330.00 Z
           M 177.00,1062.00
           C 177.00,1062.00 192.00,1062.00 192.00,1062.00
             190.45,1069.86 190.19,1070.97 182.00,1074.00
             188.99,1082.89 188.80,1076.49 192.00,1089.00
             192.00,1089.00 177.00,1089.00 177.00,1089.00
             177.00,1089.00 177.00,1083.00 177.00,1083.00
             177.00,1083.00 185.00,1082.00 185.00,1082.00
             185.00,1082.00 181.05,1080.10 181.05,1080.10
             172.67,1075.01 180.45,1071.33 185.00,1068.00
             185.00,1068.00 177.00,1068.00 177.00,1068.00
             177.00,1068.00 177.00,1062.00 177.00,1062.00 Z
           M 214.00,1062.00
           C 214.00,1062.00 228.00,1062.00 228.00,1062.00
             228.00,1062.00 228.00,1078.00 228.00,1078.00
             228.00,1078.00 224.00,1078.00 224.00,1078.00
             224.00,1078.00 224.00,1068.00 224.00,1068.00
             224.00,1068.00 222.00,1068.00 222.00,1068.00
             221.99,1071.98 222.45,1073.68 220.00,1077.00
             220.00,1077.00 219.00,1068.00 219.00,1068.00
             219.00,1068.00 217.00,1068.00 217.00,1068.00
             217.00,1068.00 217.00,1079.00 217.00,1079.00
             217.00,1079.00 214.00,1079.00 214.00,1079.00
             214.00,1079.00 214.00,1062.00 214.00,1062.00 Z
           M 251.00,1062.00
           C 251.00,1062.00 265.00,1062.00 265.00,1062.00
             264.91,1071.54 263.07,1070.91 256.00,1077.00
             256.00,1077.00 265.00,1077.00 265.00,1077.00
             265.00,1077.00 265.00,1083.00 265.00,1083.00
             265.00,1083.00 251.00,1083.00 251.00,1083.00
             251.12,1074.02 253.45,1073.69 260.00,1068.00
             260.00,1068.00 251.00,1068.00 251.00,1068.00
             251.00,1068.00 251.00,1062.00 251.00,1062.00 Z
           M 214.00,1086.00
           C 214.00,1086.00 228.00,1086.00 228.00,1086.00
             227.88,1095.12 225.48,1095.04 219.00,1101.00
             219.00,1101.00 228.00,1101.00 228.00,1101.00
             228.00,1101.00 228.00,1107.00 228.00,1107.00
             228.00,1107.00 214.00,1107.00 214.00,1107.00
             214.04,1097.59 215.16,1098.55 222.00,1092.00
             222.00,1092.00 214.00,1092.00 214.00,1092.00
             214.00,1092.00 214.00,1086.00 214.00,1086.00 Z
           M 265.00,1108.00
           C 261.55,1108.00 257.05,1108.39 254.19,1106.26
             250.01,1103.24 249.64,1093.98 254.19,1091.17
             256.73,1089.64 262.02,1090.00 265.00,1090.00
             265.00,1090.00 265.00,1096.00 265.00,1096.00
             262.85,1096.00 257.39,1095.65 255.74,1097.31
             255.41,1097.88 255.30,1098.48 255.74,1099.20
             256.74,1102.39 262.30,1101.99 265.00,1102.00
             265.00,1102.00 265.00,1108.00 265.00,1108.00 Z
           M 1051.00,1214.00
           C 1051.00,1214.00 1067.47,1187.00 1067.47,1187.00
             1067.47,1187.00 1090.05,1151.00 1090.05,1151.00
             1090.05,1151.00 1107.40,1124.00 1107.40,1124.00
             1107.40,1124.00 1119.32,1105.00 1119.32,1105.00
             1120.78,1102.70 1123.07,1098.39 1125.33,1097.02
             1127.38,1095.78 1130.65,1096.00 1133.00,1096.00
             1133.00,1096.00 1181.00,1096.00 1181.00,1096.00
             1194.32,1095.97 1187.12,1092.07 1201.00,1092.00
             1205.70,1091.98 1213.02,1090.88 1215.26,1096.11
             1216.89,1099.89 1214.65,1104.25 1218.43,1108.89
             1221.34,1112.47 1227.71,1114.54 1232.00,1116.19
             1236.20,1117.95 1238.88,1118.65 1242.99,1116.19
             1246.44,1113.98 1248.35,1110.55 1252.04,1110.36
             1256.41,1110.12 1261.17,1115.10 1263.98,1118.00
             1266.69,1120.80 1269.54,1123.76 1268.67,1128.00
             1267.75,1132.44 1263.13,1134.87 1261.78,1139.00
             1260.59,1142.67 1264.38,1151.46 1266.05,1155.00
             1267.59,1158.24 1269.53,1160.92 1273.00,1162.26
             1277.69,1164.08 1285.29,1161.15 1286.89,1169.02
             1286.89,1169.02 1286.89,1173.00 1286.89,1173.00
             1287.05,1176.66 1287.72,1185.81 1285.26,1188.42
             1282.48,1191.37 1276.60,1190.39 1273.04,1191.43
             1268.99,1192.61 1267.01,1196.37 1265.46,1200.00
             1264.10,1203.20 1260.90,1210.76 1261.60,1214.00
             1262.56,1218.43 1266.99,1220.63 1268.30,1224.18
             1270.64,1230.56 1262.69,1238.15 1258.00,1241.35
             1247.17,1248.75 1245.84,1233.17 1235.00,1236.28
             1230.01,1237.72 1220.49,1241.73 1217.60,1246.04
             1215.00,1249.92 1216.70,1253.67 1215.40,1256.95
             1213.14,1262.66 1206.16,1262.99 1201.00,1263.00
             1201.00,1263.00 1162.00,1263.00 1162.00,1263.00
             1154.90,1263.00 1145.74,1262.36 1139.00,1264.00
             1139.00,1264.00 1138.00,1240.00 1138.00,1240.00
             1138.00,1240.00 1138.00,1194.00 1138.00,1194.00
             1138.00,1194.00 1139.00,1159.00 1139.00,1159.00
             1139.00,1159.00 1122.15,1186.00 1122.15,1186.00
             1122.15,1186.00 1092.00,1237.00 1092.00,1237.00
             1092.00,1237.00 1081.60,1255.00 1081.60,1255.00
             1081.60,1255.00 1076.61,1261.98 1076.61,1261.98
             1076.61,1261.98 1069.00,1263.00 1069.00,1263.00
             1069.00,1263.00 1031.00,1263.00 1031.00,1263.00
             1031.00,1263.00 1023.61,1262.01 1023.61,1262.01
             1023.61,1262.01 1018.60,1255.00 1018.60,1255.00
             1018.60,1255.00 1008.72,1238.00 1008.72,1238.00
             1008.72,1238.00 986.22,1200.00 986.22,1200.00
             986.22,1200.00 962.00,1159.00 962.00,1159.00
             962.00,1159.00 962.00,1263.00 962.00,1263.00
             962.00,1263.00 891.00,1263.00 891.00,1263.00
             891.00,1263.00 891.00,1135.00 891.00,1135.00
             891.00,1135.00 891.00,1108.00 891.00,1108.00
             891.00,1108.00 892.02,1097.60 892.02,1097.60
             892.02,1097.60 900.00,1096.00 900.00,1096.00
             900.00,1096.00 966.00,1096.00 966.00,1096.00
             966.00,1096.00 974.67,1097.17 974.67,1097.17
             974.67,1097.17 980.82,1105.00 980.82,1105.00
             980.82,1105.00 992.39,1123.00 992.39,1123.00
             992.39,1123.00 1027.69,1179.00 1027.69,1179.00
             1027.69,1179.00 1049.00,1214.00 1049.00,1214.00
             1049.00,1214.00 1051.00,1214.00 1051.00,1214.00 Z
           M 379.00,1096.00
           C 379.00,1096.00 454.00,1096.00 454.00,1096.00
             454.00,1096.00 461.82,1096.74 461.82,1096.74
             461.82,1096.74 469.00,1104.00 469.00,1104.00
             469.00,1104.00 485.08,1123.00 485.08,1123.00
             485.08,1123.00 524.54,1170.00 524.54,1170.00
             524.54,1170.00 556.00,1207.00 556.00,1207.00
             556.00,1207.00 556.00,1122.00 556.00,1122.00
             556.00,1122.00 556.00,1103.00 556.00,1103.00
             556.00,1103.00 557.60,1097.02 557.60,1097.02
             557.60,1097.02 565.00,1096.00 565.00,1096.00
             565.00,1096.00 626.00,1096.00 626.00,1096.00
             626.00,1096.00 626.00,1263.00 626.00,1263.00
             626.00,1263.00 550.00,1263.00 550.00,1263.00
             550.00,1263.00 542.17,1261.98 542.17,1261.98
             542.17,1261.98 533.92,1253.00 533.92,1253.00
             533.92,1253.00 518.80,1235.00 518.80,1235.00
             518.80,1235.00 488.61,1199.00 488.61,1199.00
             488.61,1199.00 464.42,1170.00 464.42,1170.00
             464.42,1170.00 449.00,1152.00 449.00,1152.00
             449.00,1152.00 449.00,1263.00 449.00,1263.00
             449.00,1263.00 379.00,1263.00 379.00,1263.00
             379.00,1263.00 379.00,1096.00 379.00,1096.00 Z
           M 663.00,1096.00
           C 663.00,1096.00 855.00,1096.00 855.00,1096.00
             855.00,1096.00 855.00,1138.00 855.00,1138.00
             855.00,1138.00 734.00,1138.00 734.00,1138.00
             734.00,1138.00 734.00,1163.00 734.00,1163.00
             734.00,1163.00 803.00,1163.00 803.00,1163.00
             803.00,1163.00 837.00,1164.00 837.00,1164.00
             837.00,1164.00 836.00,1196.00 836.00,1196.00
             836.00,1196.00 734.00,1196.00 734.00,1196.00
             734.00,1196.00 734.00,1221.00 734.00,1221.00
             734.00,1221.00 864.00,1221.00 864.00,1221.00
             864.00,1221.00 864.00,1256.00 864.00,1256.00
             863.98,1258.93 864.56,1262.53 860.87,1263.04
             860.87,1263.04 852.00,1263.04 852.00,1263.04
             852.00,1263.04 725.00,1263.04 725.00,1263.04
             725.00,1263.04 686.00,1263.04 686.00,1263.04
             678.90,1263.00 669.74,1262.36 663.00,1264.00
             663.00,1264.00 663.00,1096.00 663.00,1096.00 Z
           M 177.00,1097.00
           C 177.00,1097.00 191.00,1097.00 191.00,1097.00
             191.00,1097.00 191.00,1113.00 191.00,1113.00
             186.93,1110.27 188.00,1106.51 188.00,1102.00
             184.70,1105.35 185.06,1106.47 185.00,1111.00
             185.00,1111.00 183.00,1111.00 183.00,1111.00
             183.00,1111.00 183.00,1102.00 183.00,1102.00
             179.59,1104.75 180.75,1107.89 181.00,1112.00
             181.00,1112.00 177.00,1113.00 177.00,1113.00
             177.00,1113.00 177.00,1097.00 177.00,1097.00 Z
           M 267.00,1098.00
           C 267.00,1098.00 270.00,1102.00 270.00,1102.00
             270.00,1102.00 267.00,1098.00 267.00,1098.00 Z
           M 214.00,1133.00
           C 214.29,1128.83 213.31,1120.30 215.17,1117.15
             217.72,1112.85 224.10,1113.19 226.69,1118.06
             229.71,1123.74 227.67,1129.22 223.00,1133.00
             223.00,1133.00 224.00,1120.00 224.00,1120.00
             218.30,1119.83 217.44,1121.52 217.00,1127.00
             217.00,1127.00 219.00,1125.00 219.00,1125.00
             219.00,1125.00 220.00,1125.00 220.00,1125.00
             220.00,1125.00 221.00,1133.00 221.00,1133.00
             221.00,1133.00 214.00,1133.00 214.00,1133.00 Z
           M 255.84,1133.00
           C 247.32,1128.36 250.42,1113.44 258.98,1114.50
             267.23,1115.51 265.21,1128.52 263.83,1130.58
             262.72,1132.22 261.67,1132.36 260.00,1133.00
             260.00,1133.00 261.03,1124.06 261.03,1124.06
             260.40,1120.93 256.87,1119.96 255.84,1123.16
             255.19,1124.52 255.95,1130.91 255.84,1133.00 Z
           M 182.00,1138.00
           C 172.82,1133.09 177.15,1118.39 185.98,1120.33
             192.20,1121.71 194.59,1135.26 185.98,1138.00
             186.22,1135.87 187.57,1130.53 187.19,1129.12
             186.40,1126.14 182.76,1125.43 181.50,1128.27
             180.81,1129.81 181.89,1135.77 182.00,1138.00 Z
           M 1214.00,1123.00
           C 1207.16,1129.94 1209.00,1142.85 1209.00,1152.00
             1209.00,1152.00 1209.00,1222.00 1209.00,1222.00
             1208.98,1224.78 1208.63,1229.49 1210.60,1231.64
             1213.79,1235.13 1218.69,1231.40 1219.64,1226.00
             1220.35,1221.98 1218.51,1218.58 1217.00,1215.00
             1217.00,1215.00 1225.00,1215.00 1225.00,1215.00
             1223.03,1223.52 1226.54,1223.93 1234.00,1224.00
             1228.22,1213.08 1223.06,1206.05 1225.14,1193.00
             1225.67,1189.69 1227.06,1184.65 1229.41,1182.20
             1230.22,1181.36 1231.97,1179.89 1233.18,1180.91
             1234.77,1182.25 1232.29,1186.54 1231.67,1188.00
             1230.14,1191.66 1226.92,1203.28 1230.59,1206.27
             1234.57,1209.51 1236.58,1202.50 1237.00,1200.00
             1237.00,1200.00 1233.00,1201.00 1233.00,1201.00
             1233.15,1185.30 1243.08,1185.98 1241.89,1174.00
             1241.14,1166.51 1233.91,1166.99 1230.38,1170.31
             1225.15,1175.24 1223.88,1185.42 1221.00,1192.00
             1221.00,1192.00 1223.00,1170.00 1223.00,1170.00
             1223.03,1153.10 1221.23,1138.56 1214.00,1123.00 Z
           M 252.00,1140.00
           C 252.00,1140.00 265.00,1141.00 265.00,1141.00
             265.00,1141.00 265.00,1146.00 265.00,1146.00
             265.00,1146.00 255.60,1147.60 255.60,1147.60
             255.60,1147.60 254.00,1157.00 254.00,1157.00
             254.00,1157.00 251.00,1157.00 251.00,1157.00
             251.00,1157.00 252.00,1140.00 252.00,1140.00 Z
           M 251.00,1163.00
           C 253.66,1163.00 261.51,1162.52 263.40,1164.02
             265.85,1165.96 265.00,1175.82 265.00,1179.00
             265.00,1179.00 262.00,1179.00 262.00,1179.00
             262.00,1179.00 262.00,1169.00 262.00,1169.00
             262.00,1169.00 259.00,1169.00 259.00,1169.00
             259.00,1169.00 259.00,1178.00 259.00,1178.00
             259.00,1178.00 257.00,1178.00 257.00,1178.00
             257.00,1178.00 257.00,1169.00 257.00,1169.00
             253.24,1172.81 254.00,1174.90 254.00,1180.00
             254.00,1180.00 251.00,1180.00 251.00,1180.00
             251.00,1180.00 251.00,1163.00 251.00,1163.00 Z
           M 214.00,1164.00
           C 214.00,1164.00 228.00,1164.00 228.00,1164.00
             227.87,1174.34 224.87,1172.46 219.00,1180.00
             219.00,1180.00 228.00,1180.00 228.00,1180.00
             228.00,1180.00 228.00,1185.00 228.00,1185.00
             228.00,1185.00 214.00,1185.00 214.00,1185.00
             214.12,1176.02 216.45,1175.69 223.00,1170.00
             223.00,1170.00 214.00,1170.00 214.00,1170.00
             214.00,1170.00 214.00,1164.00 214.00,1164.00 Z
           M 177.00,1174.00
           C 177.00,1174.00 191.00,1174.00 191.00,1174.00
             190.97,1183.35 189.40,1182.94 182.00,1189.00
             182.00,1189.00 191.00,1190.00 191.00,1190.00
             191.00,1190.00 191.00,1195.00 191.00,1195.00
             191.00,1195.00 177.00,1195.00 177.00,1195.00
             177.12,1185.47 179.42,1187.51 186.00,1180.00
             186.00,1180.00 177.00,1180.00 177.00,1180.00
             177.00,1180.00 177.00,1174.00 177.00,1174.00 Z
           M 254.34,1188.02
           C 267.37,1183.14 267.04,1201.43 261.77,1204.69
             253.00,1210.12 246.66,1195.24 254.34,1188.02 Z
           M 257.26,1192.74
           C 252.61,1196.03 256.06,1200.43 258.82,1199.95
             261.72,1199.44 263.64,1193.03 257.26,1192.74 Z
           M 214.00,1193.00
           C 214.00,1193.00 228.00,1193.00 228.00,1193.00
             228.00,1193.00 228.00,1198.00 228.00,1198.00
             222.33,1198.95 222.19,1200.62 222.00,1206.00
             229.45,1206.62 227.79,1210.36 225.68,1211.40
             223.90,1212.28 216.38,1212.00 214.00,1212.00
             214.00,1212.00 214.00,1206.00 214.00,1206.00
             214.00,1206.00 220.00,1206.00 220.00,1206.00
             220.00,1206.00 220.00,1199.00 220.00,1199.00
             220.00,1199.00 214.00,1198.00 214.00,1198.00
             214.00,1198.00 214.00,1193.00 214.00,1193.00 Z
           M 177.00,1203.00
           C 177.00,1203.00 191.00,1203.00 191.00,1203.00
             191.00,1203.00 191.00,1209.00 191.00,1209.00
             179.88,1209.00 177.60,1210.17 177.00,1203.00 Z
           M 182.00,1234.00
           C 173.85,1229.52 176.32,1215.93 184.01,1215.82
             191.85,1215.71 194.90,1229.42 186.00,1234.00
             186.00,1234.00 187.36,1225.06 187.36,1225.06
             186.77,1221.04 182.76,1220.95 181.38,1224.15
             180.61,1225.95 181.87,1231.51 182.00,1234.00 Z
           M 214.00,1219.00
           C 217.48,1220.33 227.15,1225.14 227.56,1229.17
             228.10,1234.46 218.11,1239.43 214.00,1241.00
             214.00,1241.00 215.89,1230.00 215.89,1230.00
             215.89,1230.00 214.00,1219.00 214.00,1219.00 Z
           M 251.00,1222.00
           C 251.00,1222.00 265.00,1222.00 265.00,1222.00
             265.00,1225.85 265.59,1235.87 263.83,1238.85
             261.41,1242.94 254.70,1243.00 252.31,1238.85
             250.45,1235.62 251.00,1226.06 251.00,1222.00 Z
           M 223.00,1229.00
           C 223.00,1229.00 219.00,1228.00 219.00,1228.00
             219.00,1228.00 219.00,1232.00 219.00,1232.00
             219.00,1232.00 223.00,1231.00 223.00,1231.00
             223.00,1231.00 223.00,1229.00 223.00,1229.00 Z
           M 262.00,1228.00
           C 262.00,1228.00 254.00,1229.00 254.00,1229.00
             256.75,1238.75 261.75,1237.80 262.00,1228.00 Z
           M 177.00,1241.00
           C 180.07,1242.39 189.19,1247.37 190.41,1250.38
             192.81,1256.30 181.26,1261.64 177.00,1263.00
             177.00,1263.00 179.69,1251.00 179.69,1251.00
             179.69,1251.00 177.00,1241.00 177.00,1241.00 Z
           M 214.00,1248.00
           C 214.00,1248.00 228.00,1248.00 228.00,1248.00
             228.00,1254.97 229.92,1271.13 218.00,1265.00
             218.00,1265.00 214.00,1267.00 214.00,1267.00
             214.00,1267.00 218.00,1254.00 218.00,1254.00
             218.00,1254.00 214.00,1254.00 214.00,1254.00
             214.00,1254.00 214.00,1248.00 214.00,1248.00 Z
           M 187.00,1251.00
           C 187.00,1251.00 183.00,1250.00 183.00,1250.00
             183.00,1250.00 183.00,1255.00 183.00,1255.00
             183.00,1255.00 187.00,1253.00 187.00,1253.00
             187.00,1253.00 187.00,1251.00 187.00,1251.00 Z
           M 251.00,1249.00
           C 253.66,1249.00 261.51,1248.52 263.40,1250.02
             265.85,1251.96 265.00,1261.82 265.00,1265.00
             265.00,1265.00 262.00,1265.00 262.00,1265.00
             262.00,1265.00 262.00,1255.00 262.00,1255.00
             262.00,1255.00 259.00,1255.00 259.00,1255.00
             259.00,1255.00 259.00,1264.00 259.00,1264.00
             259.00,1264.00 257.00,1264.00 257.00,1264.00
             257.00,1264.00 257.00,1255.00 257.00,1255.00
             257.00,1255.00 254.00,1255.00 254.00,1255.00
             254.00,1255.00 254.00,1266.00 254.00,1266.00
             254.00,1266.00 251.00,1266.00 251.00,1266.00
             251.00,1266.00 251.00,1249.00 251.00,1249.00 Z
           M 224.00,1254.00
           C 224.00,1254.00 221.00,1254.00 221.00,1254.00
             221.05,1257.95 220.50,1259.66 224.00,1262.00
             224.00,1262.00 224.00,1254.00 224.00,1254.00 Z
           M 214.00,1274.00
           C 225.12,1274.00 227.40,1272.83 228.00,1280.00
             228.00,1280.00 214.00,1280.00 214.00,1280.00
             214.00,1280.00 214.00,1274.00 214.00,1274.00 Z
           M 214.00,1287.00
           C 217.87,1288.48 227.37,1293.20 227.37,1297.96
             227.37,1302.50 217.70,1306.83 214.00,1308.00
             214.00,1308.00 215.89,1298.00 215.89,1298.00
             215.89,1298.00 214.00,1287.00 214.00,1287.00 Z
           M 224.00,1297.00
           C 224.00,1297.00 219.00,1296.00 219.00,1296.00
             219.00,1296.00 219.00,1300.00 219.00,1300.00
             219.00,1300.00 224.00,1297.00 224.00,1297.00 Z" />
</svg>
