<?xml version="1.0" encoding="UTF-8" standalone="no"?>
<!DOCTYPE svg PUBLIC "-//W3C//DTD SVG 20010904//EN"
              "http://www.w3.org/TR/2001/REC-SVG-20010904/DTD/svg10.dtd">

<svg xmlns="http://www.w3.org/2000/svg"
     width="4.82667in" height="6.82667in"
     viewBox="0 0 1448 2048">
  <path id="Seleção"
        fill="none" stroke="black" stroke-width="1"
        d="M 1312.00,827.55
           C 1316.10,827.44 1321.94,828.39 1323.34,833.04
             1324.64,837.33 1319.72,840.59 1317.00,843.07
             1310.40,849.10 1297.77,861.84 1289.00,862.81
             1277.68,864.07 1280.24,857.11 1285.29,851.00
             1288.62,846.97 1300.60,832.42 1304.09,830.22
             1306.62,828.63 1309.13,828.10 1312.00,827.55 Z
           M 365.00,898.00
           C 365.00,898.00 360.86,910.00 360.86,910.00
             359.03,915.17 357.69,920.03 355.19,925.00
             346.11,943.05 329.49,954.90 309.00,955.00
             300.24,955.04 296.53,955.66 288.00,952.83
             288.00,952.83 274.00,946.91 274.00,946.91
             270.21,946.85 267.82,951.72 258.00,954.24
             254.19,955.22 249.93,955.04 246.00,955.00
             230.93,954.81 222.68,945.87 223.01,931.00
             223.23,921.48 227.40,912.72 230.80,904.00
             230.80,904.00 242.00,873.00 242.00,873.00
             243.96,867.23 249.13,855.50 239.00,854.27
             228.23,852.96 223.10,869.34 220.19,877.00
             220.19,877.00 199.01,936.00 199.01,936.00
             196.14,944.13 194.60,954.21 184.00,954.86
             182.79,955.03 180.16,954.99 179.00,954.86
             166.77,952.55 172.30,938.40 175.20,931.00
             175.20,931.00 195.84,875.00 195.84,875.00
             198.07,869.17 202.64,859.10 195.84,854.78
             193.93,853.52 192.17,853.52 190.00,854.15
             181.89,856.50 178.17,866.80 175.66,874.00
             175.66,874.00 163.35,908.00 163.35,908.00
             163.35,908.00 153.42,936.00 153.42,936.00
             153.42,936.00 149.89,946.00 149.89,946.00
             146.61,953.45 137.74,958.24 130.19,953.58
             121.23,948.06 129.21,931.46 131.86,924.00
             131.86,924.00 158.05,851.00 158.05,851.00
             161.18,842.44 162.72,829.68 174.00,829.04
             179.22,828.75 183.15,829.27 186.00,834.00
             186.00,834.00 196.00,829.63 196.00,829.63
             204.73,827.15 215.83,829.40 220.00,838.00
             232.32,832.85 231.90,828.82 248.00,829.00
             251.59,829.04 254.59,829.27 258.00,830.56
             269.18,834.78 272.12,844.13 272.00,855.00
             271.89,863.83 265.49,878.32 262.19,887.00
             262.19,887.00 257.69,899.00 257.69,899.00
             257.69,899.00 254.77,908.00 254.77,908.00
             254.77,908.00 247.48,928.00 247.48,928.00
             246.50,932.23 247.77,936.50 253.00,935.29
             261.33,933.37 266.37,922.15 269.05,915.00
             274.61,900.13 277.61,881.15 293.00,873.27
             297.55,870.95 302.88,869.48 308.00,869.21
             311.17,869.04 315.99,870.05 319.00,871.10
             348.54,881.37 336.68,922.71 308.00,923.96
             299.98,924.31 297.18,923.03 289.99,920.00
             289.83,922.42 289.26,925.73 289.99,928.00
             291.71,933.49 297.63,936.46 303.00,937.02
             313.19,938.09 323.41,933.87 330.57,926.70
             337.77,919.50 340.87,910.36 344.32,901.00
             345.25,898.47 347.97,891.30 348.20,889.00
             348.63,884.55 345.59,882.31 346.10,875.00
             347.15,859.91 362.52,857.22 369.36,864.53
             372.78,868.17 372.95,872.33 373.00,877.00
             382.55,878.50 395.86,885.66 397.67,896.00
             398.63,901.47 396.71,906.96 394.81,912.00
             394.81,912.00 388.71,930.00 388.71,930.00
             388.19,932.03 387.44,935.43 390.25,936.18
             392.69,936.83 395.38,934.28 396.87,932.67
             401.18,928.01 404.53,922.04 406.41,916.00
             406.41,916.00 410.26,905.00 410.26,905.00
             416.58,885.49 421.36,871.12 445.00,869.32
             448.04,869.09 451.05,869.74 454.00,870.43
             475.93,875.52 479.51,900.00 465.68,914.83
             459.63,921.31 450.74,924.31 442.00,923.96
             436.41,923.73 432.97,922.33 428.00,920.00
             427.63,922.06 426.94,924.96 427.35,927.00
             427.91,929.73 429.88,931.91 432.02,933.58
             440.93,940.57 455.70,936.17 464.00,930.21
             472.16,924.36 471.56,921.41 474.81,913.00
             474.81,913.00 483.67,889.00 483.67,889.00
             485.35,883.98 487.79,874.34 492.21,871.41
             498.81,866.92 503.38,870.81 506.58,871.41
             506.58,871.41 519.00,869.32 519.00,869.32
             521.89,869.09 525.25,869.68 528.00,870.60
             530.53,871.44 532.91,872.71 534.97,874.39
             548.77,885.51 539.85,903.59 534.97,917.00
             533.51,920.92 525.84,935.47 533.06,936.58
             536.47,937.10 539.74,934.13 541.98,931.96
             547.90,926.24 549.96,920.63 552.42,913.00
             554.48,906.64 561.98,884.66 565.07,880.17
             570.98,871.57 581.93,867.55 592.00,870.04
             597.01,871.28 599.71,873.39 604.00,876.00
             604.00,876.00 611.58,853.00 611.58,853.00
             613.70,847.33 617.48,834.10 622.19,830.74
             628.91,825.95 638.91,830.46 638.74,839.00
             638.65,843.35 633.00,858.00 631.22,863.00
             631.22,863.00 615.33,909.00 615.33,909.00
             615.33,909.00 608.82,928.00 608.82,928.00
             607.94,930.51 606.94,933.32 609.35,935.39
             612.21,937.83 615.62,935.73 618.00,933.77
             622.93,929.73 626.23,924.90 628.54,919.00
             635.25,901.87 637.05,878.86 657.00,871.70
             659.73,870.72 664.13,869.61 667.00,869.30
             670.49,868.93 675.65,869.83 679.00,870.90
             698.59,877.15 702.27,900.68 688.70,914.83
             678.32,925.65 663.86,926.03 650.84,920.00
             650.67,922.54 650.00,925.49 650.84,927.99
             654.21,940.72 674.43,937.85 683.00,932.74
             687.22,930.23 692.55,926.06 695.30,922.00
             697.90,918.17 699.34,912.38 700.86,908.00
             700.86,908.00 711.67,878.00 711.67,878.00
             714.77,871.33 721.80,866.41 728.79,871.23
             735.63,875.94 732.25,883.86 730.17,890.00
             730.17,890.00 719.34,921.00 719.34,921.00
             718.31,923.97 715.51,930.91 716.64,933.77
             717.85,936.86 721.32,937.00 723.99,935.90
             728.30,934.12 732.00,928.86 734.38,925.00
             738.25,918.73 743.25,906.16 745.67,899.00
             745.67,899.00 749.01,889.00 749.01,889.00
             749.59,884.31 746.65,883.75 747.04,875.00
             747.66,861.18 762.02,856.47 769.96,864.53
             775.07,869.72 772.94,873.52 775.60,876.30
             777.13,877.91 781.73,879.25 784.00,880.37
             791.21,883.93 797.27,888.55 798.50,897.00
             799.55,904.29 793.27,918.83 790.45,926.00
             789.70,928.34 786.86,934.23 790.45,935.75
             794.71,937.68 801.09,928.31 802.53,925.00
             802.53,925.00 813.00,895.00 813.00,895.00
             815.16,888.67 817.60,881.19 822.44,876.47
             827.61,871.42 835.83,868.80 843.00,869.46
             843.00,869.46 855.00,871.54 855.00,871.54
             858.88,871.48 860.36,868.59 866.00,868.11
             873.46,867.47 879.42,872.17 878.40,880.00
             878.40,880.00 864.86,920.00 864.86,920.00
             863.51,923.88 857.26,938.55 867.00,936.29
             874.99,934.44 880.60,923.83 883.69,917.00
             885.83,912.27 886.42,908.42 892.04,906.65
             900.71,903.91 905.49,909.65 903.39,918.00
             900.74,928.58 893.54,941.37 884.91,948.11
             876.75,954.49 864.07,956.80 854.00,954.47
             847.59,952.99 845.66,949.40 842.72,949.63
             839.93,949.85 836.16,954.00 830.00,954.81
             826.40,955.29 819.45,955.09 816.00,954.01
             816.00,954.01 807.58,950.42 807.58,950.42
             804.56,950.17 800.63,953.69 795.00,954.67
             780.28,957.25 765.07,949.80 766.09,933.00
             766.49,926.41 769.88,919.25 772.00,913.00
             772.86,910.45 774.43,906.67 773.50,904.04
             772.35,900.78 768.89,899.32 766.00,898.00
             766.00,898.00 760.43,913.00 760.43,913.00
             755.07,927.84 750.46,941.96 736.00,950.68
             728.58,955.15 716.29,956.76 708.00,953.89
             702.58,952.02 700.09,948.72 697.00,948.35
             694.80,948.08 688.64,951.10 686.00,952.00
             679.03,954.35 675.33,954.99 668.00,955.00
             659.85,955.01 655.91,955.63 648.00,952.78
             648.00,952.78 635.00,946.69 635.00,946.69
             632.13,946.33 628.57,949.46 626.00,950.83
             620.58,953.72 617.15,954.92 611.00,955.00
             606.89,955.04 602.92,955.12 599.00,953.67
             599.00,953.67 590.57,949.59 590.57,949.59
             588.48,949.39 583.43,952.60 581.00,953.53
             576.72,955.17 573.48,955.05 569.00,955.00
             565.06,954.95 562.67,954.77 559.00,953.08
             556.92,952.13 554.15,950.02 552.00,949.87
             549.43,949.70 542.79,953.60 539.00,954.47
             525.00,957.68 508.24,952.41 507.10,936.00
             506.52,927.76 514.65,908.71 517.66,900.00
             518.82,896.62 521.87,889.22 515.94,888.45
             508.24,887.44 503.32,899.42 501.19,905.00
             501.19,905.00 488.41,941.00 488.41,941.00
             485.85,948.02 483.48,954.38 475.00,955.66
             468.76,956.60 466.66,952.73 462.00,952.78
             462.00,952.78 453.00,954.52 453.00,954.52
             448.67,955.33 434.20,955.23 430.00,954.52
             426.02,953.48 421.53,951.82 418.00,949.80
             415.97,948.65 413.44,946.45 411.00,946.73
             411.00,946.73 400.00,952.69 400.00,952.69
             391.16,956.67 378.23,956.22 371.19,948.90
             363.11,940.50 365.71,928.86 369.00,919.00
             372.37,908.89 378.19,902.75 365.00,898.00 Z
           M 991.00,876.00
           C 991.00,876.00 998.86,853.00 998.86,853.00
             1001.00,846.95 1004.31,835.30 1009.10,831.31
             1014.66,826.68 1026.47,828.68 1025.89,840.00
             1025.69,843.92 1018.98,862.06 1017.22,867.00
             1017.22,867.00 1001.95,911.00 1001.95,911.00
             1001.95,911.00 995.76,929.00 995.76,929.00
             995.21,931.37 994.81,934.46 997.31,935.93
             999.84,937.42 1002.93,935.55 1004.96,934.06
             1010.26,930.19 1012.06,925.95 1014.14,920.00
             1014.14,920.00 1022.14,897.00 1022.14,897.00
             1026.40,884.73 1028.72,874.41 1043.00,870.49
             1045.83,869.71 1049.06,869.09 1052.00,869.32
             1052.00,869.32 1065.00,871.69 1065.00,871.69
             1069.47,871.42 1071.83,867.18 1079.00,868.21
             1086.68,869.32 1088.88,875.02 1087.67,882.00
             1087.67,882.00 1074.34,921.00 1074.34,921.00
             1073.20,924.28 1069.28,932.51 1071.83,935.40
             1075.03,939.03 1081.50,934.23 1083.96,931.90
             1087.87,928.20 1090.48,923.86 1092.69,919.00
             1094.29,915.48 1095.25,911.03 1098.22,908.43
             1102.26,904.90 1110.09,904.95 1112.82,910.06
             1115.76,915.57 1109.62,927.99 1106.77,933.00
             1097.53,949.24 1088.63,955.22 1070.00,955.00
             1061.89,954.90 1058.36,952.86 1052.00,948.00
             1046.02,954.78 1033.37,956.94 1025.00,953.87
             1021.40,952.55 1018.88,950.42 1016.00,948.00
             1009.76,955.06 995.65,956.86 987.00,953.89
             983.16,952.58 980.18,950.43 977.00,948.00
             970.85,954.57 964.49,955.10 956.00,955.00
             945.85,954.88 938.16,949.98 935.05,940.00
             932.02,930.25 938.03,918.21 941.31,909.00
             947.25,892.29 951.65,867.30 975.00,869.33
             982.13,869.95 985.28,872.28 991.00,876.00 Z
           M 1210.00,829.44
           C 1221.76,827.91 1235.16,829.38 1243.24,839.17
             1249.85,847.19 1252.89,863.97 1238.00,863.97
             1226.22,863.97 1228.09,852.40 1219.00,850.47
             1214.24,849.46 1205.08,854.58 1209.91,864.00
             1218.78,881.27 1237.97,889.52 1238.00,914.00
             1238.02,933.89 1225.19,949.04 1206.00,954.08
             1201.17,955.34 1194.12,955.06 1189.00,955.00
             1173.69,954.82 1159.54,945.29 1153.93,931.00
             1150.43,922.09 1149.84,906.48 1162.00,904.52
             1164.32,904.14 1166.85,904.42 1168.98,905.43
             1176.88,909.17 1173.99,916.39 1176.42,923.00
             1178.81,929.48 1185.21,933.97 1192.00,934.66
             1203.10,935.80 1217.92,923.50 1210.17,908.00
             1201.52,890.69 1182.48,882.02 1183.01,859.00
             1183.15,853.07 1184.38,848.92 1187.77,844.00
             1190.02,840.75 1192.81,837.53 1196.04,835.22
             1200.20,832.26 1205.04,830.47 1210.00,829.44 Z
           M 733.00,832.52
           C 737.36,832.24 742.45,833.39 745.15,837.21
             750.21,844.39 745.57,855.55 737.00,856.79
             721.56,859.01 716.44,836.72 733.00,832.52 Z
           M 1269.00,920.00
           C 1268.69,921.76 1268.13,924.26 1268.32,926.00
             1269.13,933.56 1277.40,936.85 1284.00,936.98
             1293.77,937.19 1303.13,933.11 1309.83,925.96
             1317.65,917.61 1316.78,912.24 1322.05,908.85
             1327.05,905.65 1335.82,906.85 1336.73,914.00
             1337.59,920.73 1329.32,933.11 1325.00,937.96
             1320.99,942.47 1317.32,945.77 1312.00,948.69
             1299.87,955.35 1290.28,955.16 1277.00,955.00
             1263.03,954.83 1249.72,947.00 1245.93,933.00
             1243.07,922.46 1250.89,905.30 1254.50,895.00
             1259.89,879.63 1271.50,867.86 1289.00,869.18
             1306.55,870.51 1317.93,883.37 1313.76,901.00
             1312.45,906.54 1309.89,911.76 1305.82,915.82
             1295.58,926.02 1281.25,925.77 1269.00,920.00 Z
           M 306.01,888.45
           C 296.94,892.13 293.63,908.10 307.96,903.35
             315.64,900.80 316.73,887.62 306.01,888.45 Z
           M 435.00,903.00
           C 437.46,903.60 439.43,904.04 442.00,903.94
             444.13,903.87 446.02,903.56 447.79,902.26
             457.02,895.49 447.84,881.90 439.39,891.15
             438.12,892.54 437.23,894.25 436.56,896.00
             435.70,898.26 435.34,900.62 435.00,903.00 Z
           M 658.00,903.00
           C 660.64,903.64 663.25,904.19 666.00,903.86
             667.82,903.65 669.29,903.21 670.79,902.11
             680.47,895.00 670.33,882.02 662.64,891.15
             661.58,892.40 660.53,894.49 659.88,896.00
             658.77,898.57 658.43,900.28 658.00,903.00 Z
           M 1276.00,903.00
           C 1278.44,903.59 1280.44,904.07 1283.00,903.88
             1285.07,903.73 1286.97,903.23 1288.67,901.99
             1298.05,895.18 1288.44,882.14 1280.42,891.15
             1279.16,892.56 1278.38,894.25 1277.71,896.00
             1276.83,898.30 1276.37,900.58 1276.00,903.00 Z
           M 587.00,889.54
           C 584.80,890.35 584.31,890.30 582.64,892.23
             579.53,895.79 574.61,911.74 572.98,917.00
             572.07,919.91 570.16,924.99 570.74,927.94
             572.15,935.12 579.77,930.37 582.61,926.96
             586.00,922.90 592.76,903.47 593.29,898.00
             593.79,892.96 592.35,889.69 587.00,889.54 Z
           M 842.01,889.66
           C 836.86,892.37 835.95,895.78 834.05,901.00
             834.05,901.00 825.61,928.00 825.61,928.00
             824.24,933.44 825.99,939.08 832.83,936.26
             835.87,935.00 838.50,930.90 839.79,928.00
             839.79,928.00 848.68,900.00 848.68,900.00
             849.56,894.55 848.60,889.21 842.01,889.66 Z
           M 973.99,889.71
           C 971.33,891.03 970.49,891.45 968.70,894.02
             966.66,896.95 959.93,917.52 958.71,922.00
             957.36,926.98 957.39,934.07 964.99,931.13
             968.66,929.71 970.59,926.36 972.21,923.00
             974.11,919.09 979.33,905.10 980.18,901.00
             981.31,895.57 980.97,889.45 973.99,889.71 Z
           M 1052.03,889.57
           C 1045.48,892.45 1044.47,898.75 1042.57,905.00
             1042.57,905.00 1036.38,924.00 1036.38,924.00
             1035.50,927.42 1033.14,935.29 1038.13,936.53
             1042.63,937.64 1046.62,933.54 1048.59,930.00
             1050.67,926.25 1057.76,903.48 1058.35,899.00
             1059.01,893.94 1057.88,889.37 1052.03,889.57 Z" />
</svg>
